<svg version="1.1" xmlns="http://www.w3.org/2000/svg" viewBox="0 0 1048.2153320161765 403.2560305330593" width="2096.430664032353" height="806.5120610661186" filter="invert(93%) hue-rotate(180deg)">
  <!-- svg-source:excalidraw -->
  
  <defs>
    <style class="style-fonts">
      @font-face {
        font-family: "Virgil";
        src: url("https://excalidraw.com/Virgil.woff2");
      }
      @font-face {
        font-family: "Cascadia";
        src: url("https://excalidraw.com/Cascadia.woff2");
      }
      @font-face {
        font-family: "Assistant";
        src: url("https://excalidraw.com/Assistant-Regular.woff2");
      }
    </style>
    
  </defs>
  <rect x="0" y="0" width="1048.2153320161765" height="403.2560305330593" fill="#ffffff"></rect><g transform="translate(14.26043261842392 10) rotate(0 255.35980224609375 12.5)"><text x="0" y="17.52" font-family="Virgil, Segoe UI Emoji" font-size="20px" fill="#1e1e1e" text-anchor="start" style="white-space: pre;" direction="ltr" dominant-baseline="alphabetic">GOAL: Find the median of the given list of numbers;</text></g><g transform="translate(14.657329148267479 53.19123551722409) rotate(0 246.80979919433594 12.5)"><text x="0" y="17.52" font-family="Virgil, Segoe UI Emoji" font-size="20px" fill="#1971c2" text-anchor="start" style="white-space: pre;" direction="ltr" dominant-baseline="alphabetic">consider the list [1,2,5,6,3,4] is of length/size "6"</text></g><g transform="translate(10 106.343479843713) rotate(0 69.92994689941406 12.5)"><text x="0" y="17.52" font-family="Virgil, Segoe UI Emoji" font-size="20px" fill="#2f9e44" text-anchor="start" style="white-space: pre;" direction="ltr" dominant-baseline="alphabetic">Finding Median:</text></g><g transform="translate(19.086496954610936 162.5503753418397) rotate(0 260.5198059082031 12.5)"><text x="0" y="17.52" font-family="Virgil, Segoe UI Emoji" font-size="20px" fill="#1e1e1e" text-anchor="start" style="white-space: pre;" direction="ltr" dominant-baseline="alphabetic">First sort the given list of numbers =&gt; [1,2,3,4,5,6] </text></g><g transform="translate(186.19383014137787 199.07989470988835) rotate(0 175.3998565673828 37.5)"><text x="0" y="17.519999999999996" font-family="Virgil, Segoe UI Emoji" font-size="19.999999999999996px" fill="#1e1e1e" text-anchor="start" style="white-space: pre;" direction="ltr" dominant-baseline="alphabetic">=&gt; two middle element are 3,4 </text><text x="0" y="42.519999999999996" font-family="Virgil, Segoe UI Emoji" font-size="19.999999999999996px" fill="#1e1e1e" text-anchor="start" style="white-space: pre;" direction="ltr" dominant-baseline="alphabetic">=&gt; median = (3+4)/2 =&gt; 3.5</text><text x="0" y="67.51999999999998" font-family="Virgil, Segoe UI Emoji" font-size="19.999999999999996px" fill="#1e1e1e" text-anchor="start" style="white-space: pre;" direction="ltr" dominant-baseline="alphabetic">=&gt; floor value of 3.5 is the median</text></g><g stroke-opacity="0.2" fill-opacity="0.2" transform="translate(456.2854906027761 167.03087812588046) rotate(0 13.07824323715738 5.604934915410752)" stroke="none"><path fill="#e03131" d="M 2.33,0 Q 2.33,0 2.19,3.75 2.06,7.51 1.96,10.01 1.86,12.50 1.92,13.92 1.98,15.34 3.12,15.35 4.26,15.37 5.60,15.30 6.94,15.23 8.15,15.03 9.36,14.83 10.76,14.64 12.15,14.46 13.23,14.16 14.31,13.86 15.69,13.47 17.07,13.08 17.95,12.44 18.84,11.81 20.38,11.44 21.92,11.07 23.15,10.59 24.37,10.12 24.41,9.00 24.45,7.89 23.19,6.28 21.94,4.67 20.99,3.96 20.04,3.24 19.06,2.44 18.08,1.63 17.06,0.97 16.04,0.30 14.49,0.08 12.94,-0.12 11.44,-0.17 9.93,-0.22 8.74,-0.22 7.55,-0.22 6.47,-0.22 5.39,-0.22 4.31,-0.00 3.23,0.20 2.63,1.55 2.03,2.90 1.92,4.04 1.80,5.17 1.80,6.35 1.81,7.52 2.41,8.62 3.01,9.72 4.19,9.84 5.36,9.96 6.64,10.01 7.92,10.06 8.68,8.68 9.44,7.30 10.57,5.55 11.70,3.80 10.16,4.00 8.61,4.20 7.47,4.30 6.33,4.41 6.82,6.04 7.31,7.67 7.86,9.16 8.41,10.66 9.64,10.03 10.87,9.41 12.87,8.62 14.87,7.84 16.41,7.44 17.94,7.04 19.56,6.82 21.18,6.59 22.90,6.00 24.61,5.41 25.86,4.89 27.11,4.37 26.07,4.83 25.03,5.30 23.57,5.00 22.12,4.70 20.43,4.67 18.74,4.64 17.16,4.63 15.57,4.62 14.37,4.63 13.17,4.64 12.05,4.65 10.94,4.65 9.75,5.24 8.57,5.82 7.55,6.50 6.53,7.17 6.03,8.24 5.53,9.31 5.47,10.54 5.41,11.76 6.29,10.95 7.17,10.13 9.13,9.36 11.09,8.58 12.03,8.03 12.97,7.48 13.93,6.81 14.89,6.14 15.65,4.88 16.41,3.63 14.18,2.56 11.95,1.49 10.45,0.92 8.96,0.35 7.52,0.13 6.09,-0.07 4.86,-0.09 3.64,-0.11 2.93,0.74 2.21,1.61 1.66,2.75 1.11,3.90 1.30,4.97 1.48,6.04 1.51,7.14 1.53,8.23 2.09,9.45 2.65,10.67 3.40,11.48 4.15,12.29 5.26,12.32 6.38,12.35 7.64,11.97 8.91,11.59 10.52,10.58 12.12,9.58 13.21,8.89 14.30,8.20 15.40,7.45 16.50,6.70 16.41,8.00 16.31,9.29 15.10,9.52 13.88,9.74 11.97,10.10 10.06,10.46 9.79,9.27 9.51,8.07 10.47,7.07 11.42,6.08 11.07,4.88 10.71,3.68 9.66,2.91 8.62,2.14 7.20,2.10 5.78,2.07 4.25,2.08 2.72,2.09 1.35,2.12 -0.01,2.15 -0.42,3.45 -0.82,4.75 0.01,5.72 0.84,6.69 1.45,7.87 2.06,9.04 2.88,10.26 3.71,11.48 4.73,12.32 5.76,13.17 6.84,13.17 7.92,13.18 9.24,12.96 10.56,12.74 11.61,12.13 12.67,11.51 13.55,10.59 14.43,9.68 14.41,8.35 14.39,7.02 14.39,5.93 14.39,4.84 12.84,4.47 11.30,4.11 9.97,3.85 8.63,3.59 7.46,3.56 6.29,3.53 4.82,3.54 3.34,3.54 1.97,3.55 0.60,3.56 1.50,4.36 2.40,5.15 2.11,6.99 1.82,8.83 1.81,9.90 1.80,10.96 2.26,12.31 2.71,13.66 3.62,14.42 4.52,15.19 5.63,15.73 6.73,16.27 8.22,16.35 9.70,16.42 10.66,15.78 11.62,15.14 12.83,14.24 14.04,13.35 14.98,12.70 15.91,12.05 17.05,10.84 18.19,9.63 18.86,8.13 19.52,6.63 19.68,5.20 19.83,3.78 20.18,2.32 20.53,0.87 20.47,-0.19 20.40,-1.27 19.82,-2.70 19.23,-4.12 17.98,-4.60 16.72,-5.08 15.49,-5.12 14.27,-5.16 13.05,-4.62 11.84,-4.08 10.60,-3.88 9.37,-3.67 8.07,-3.00 6.76,-2.33 5.64,-1.61 4.52,-0.90 4.26,0.13 4.00,1.18 4.11,2.54 4.22,3.90 4.22,5.55 4.22,7.21 4.23,8.34 4.24,9.47 4.71,10.77 5.17,12.07 6.30,12.26 7.44,12.46 8.68,12.78 9.91,13.10 11.74,13.80 13.56,14.49 14.96,15.20 16.36,15.91 17.62,16.09 18.88,16.26 17.89,17.11 16.90,17.96 16.87,16.67 16.85,15.39 17.47,16.47 18.09,17.54 16.95,18.13 15.81,18.72 14.22,19.70 12.63,20.68 10.63,21.34 8.63,22.00 7.52,22.11 6.41,22.22 5.03,22.25 3.65,22.28 1.89,21.52 0.14,20.76 -1.11,19.84 -2.37,18.91 -2.68,17.60 -3.00,16.28 -3.03,15.05 -3.05,13.81 -3.04,12.56 -3.03,11.32 -3.03,10.00 -3.04,8.68 -3.03,7.18 -3.03,5.67 -3.03,4.27 -3.02,2.87 -2.87,1.05 -2.71,-0.77 -1.94,-2.06 -1.17,-3.35 0.37,-4.05 1.92,-4.74 3.04,-4.82 4.16,-4.90 5.55,-4.89 6.93,-4.88 8.55,-4.61 10.18,-4.35 11.47,-3.96 12.75,-3.58 14.07,-2.60 15.39,-1.63 16.00,0.14 16.60,1.93 16.41,3.38 16.22,4.83 15.65,5.88 15.07,6.94 15.00,8.35 14.94,9.76 14.61,11.10 14.27,12.44 14.24,13.57 14.21,14.69 13.31,17.33 12.42,19.97 12.03,20.41 11.64,20.85 11.14,21.15 10.63,21.44 10.05,21.56 9.48,21.68 8.90,21.61 8.31,21.54 7.79,21.28 7.26,21.03 6.84,20.62 6.42,20.21 6.15,19.68 5.88,19.16 5.80,18.58 5.71,18.00 5.81,17.42 5.92,16.85 6.20,16.33 6.48,15.82 6.91,15.42 7.35,15.02 7.88,14.78 8.42,14.55 9.00,14.49 9.59,14.44 10.16,14.57 10.73,14.71 11.23,15.02 11.73,15.33 12.10,15.78 12.47,16.23 12.68,16.78 12.89,17.33 12.91,17.91 12.94,18.50 12.77,19.06 12.61,19.63 12.27,20.11 11.93,20.59 11.46,20.94 10.99,21.28 10.43,21.46 9.87,21.64 9.28,21.63 8.70,21.63 8.14,21.43 7.59,21.23 7.13,20.87 6.67,20.51 6.34,20.02 6.02,19.53 5.87,18.96 5.73,18.39 5.77,17.81 5.81,17.22 6.03,16.68 6.26,16.14 6.26,16.14 6.26,16.14 6.62,14.71 6.99,13.29 7.07,11.78 7.16,10.28 7.68,8.77 8.20,7.26 8.31,5.99 8.41,4.71 9.11,3.78 9.80,2.84 8.38,2.62 6.95,2.39 5.61,2.16 4.27,1.93 4.28,3.08 4.29,4.23 4.28,5.42 4.27,6.61 4.28,8.05 4.28,9.49 4.28,10.90 4.28,12.30 4.28,13.69 4.29,15.07 5.44,15.06 6.59,15.04 7.79,14.74 9.00,14.44 10.11,13.71 11.22,12.99 12.29,12.38 13.37,11.78 14.58,11.47 15.78,11.17 17.36,10.91 18.94,10.65 20.61,11.07 22.28,11.49 23.26,13.46 24.24,15.43 24.21,16.52 24.18,17.62 23.99,19.04 23.80,20.46 23.07,21.24 22.34,22.02 20.57,22.80 18.80,23.58 17.65,23.52 16.49,23.46 15.17,22.99 13.84,22.52 12.51,21.85 11.18,21.18 10.10,20.71 9.02,20.24 7.73,19.93 6.44,19.62 4.87,19.26 3.30,18.90 1.75,18.10 0.21,17.29 -1.05,15.35 -2.31,13.41 -2.66,11.44 -3.00,9.47 -2.99,8.34 -2.97,7.21 -2.98,6.04 -2.98,4.87 -2.96,3.74 -2.95,2.61 -2.89,1.46 -2.83,0.30 -2.38,-0.98 -1.94,-2.28 -1.22,-3.72 -0.49,-5.16 0.95,-6.49 2.41,-7.82 3.72,-8.47 5.04,-9.13 6.67,-9.78 8.30,-10.43 9.76,-10.83 11.21,-11.23 12.73,-11.71 14.25,-12.20 16.04,-12.10 17.83,-12.00 19.52,-11.40 21.20,-10.80 22.55,-10.01 23.91,-9.23 24.97,-7.89 26.04,-6.56 26.72,-4.79 27.40,-3.03 27.59,-1.06 27.78,0.90 27.52,2.18 27.27,3.47 26.88,5.23 26.49,7.00 25.83,8.92 25.16,10.85 24.01,12.74 22.85,14.63 21.25,16.22 19.65,17.81 18.72,18.42 17.78,19.03 16.34,20.22 14.91,21.41 13.34,22.16 11.77,22.90 10.64,23.12 9.51,23.34 7.87,23.23 6.24,23.11 4.20,22.45 2.17,21.79 0.46,20.68 -1.23,19.56 -2.39,18.38 -3.55,17.19 -4.01,15.67 -4.46,14.15 -4.99,12.70 -5.53,11.25 -5.51,9.87 -5.49,8.50 -5.19,7.44 -4.90,6.38 -4.88,5.12 -4.87,3.86 -4.81,2.71 -4.75,1.56 -4.35,0.20 -3.95,-1.15 -2.91,-1.97 -1.86,-2.79 -0.22,-3.17 1.42,-3.55 2.97,-3.54 4.52,-3.53 6.00,-3.50 7.49,-3.47 9.04,-3.39 10.59,-3.30 12.94,-2.53 15.29,-1.76 16.42,-1.29 17.55,-0.82 18.50,-0.14 19.45,0.53 20.59,2.69 21.72,4.85 21.71,5.99 21.69,7.13 21.66,8.41 21.62,9.70 21.05,11.20 20.47,12.70 19.82,13.93 19.17,15.15 17.71,16.59 16.25,18.03 15.31,18.63 14.37,19.23 12.68,19.58 10.98,19.94 9.81,20.17 8.65,20.40 7.47,20.37 6.30,20.34 4.47,20.02 2.65,19.69 1.35,19.01 0.05,18.32 -0.83,17.44 -1.72,16.56 -2.34,15.61 -2.96,14.66 -3.40,13.54 -3.84,12.42 -4.62,10.74 -5.41,9.06 -6.27,8.17 -7.13,7.28 -7.51,5.56 -7.90,3.84 -7.81,2.62 -7.73,1.40 -7.23,-0.00 -6.74,-1.40 -5.00,-2.72 -3.26,-4.03 -1.23,-4.33 0.80,-4.62 2.38,-4.59 3.97,-4.55 5.05,-4.50 6.13,-4.45 7.79,-4.27 9.44,-4.09 11.64,-3.07 13.84,-2.04 14.85,-1.14 15.86,-0.23 16.57,0.73 17.28,1.69 17.69,4.47 18.11,7.26 17.53,8.36 16.95,9.46 15.94,10.50 14.92,11.54 13.77,12.21 12.61,12.88 10.89,13.23 9.18,13.58 8.07,13.30 6.95,13.02 5.56,11.29 4.17,9.56 5.30,7.38 6.42,5.20 8.72,4.54 11.02,3.88 12.79,3.52 14.56,3.15 16.32,3.41 18.08,3.68 19.25,4.35 20.43,5.03 21.13,6.42 21.83,7.81 21.43,9.73 21.02,11.65 19.86,12.51 18.71,13.38 17.63,13.94 16.56,14.50 15.18,15.28 13.81,16.05 11.60,17.29 9.39,18.54 8.26,18.81 7.13,19.08 5.71,19.17 4.29,19.25 2.93,18.91 1.57,18.56 -0.27,17.13 -2.12,15.70 -2.79,14.85 -3.45,14.01 -4.04,12.71 -4.64,11.42 -4.95,10.38 -5.26,9.35 -5.24,8.08 -5.22,6.81 -5.18,5.74 -5.15,4.68 -5.00,3.45 -4.85,2.21 -4.08,0.79 -3.30,-0.62 -2.14,-2.20 -0.98,-3.78 -0.11,-4.43 0.75,-5.08 2.91,-5.55 5.06,-6.02 6.70,-5.81 8.34,-5.60 9.51,-5.34 10.69,-5.07 12.38,-4.63 14.08,-4.18 16.73,-3.34 19.38,-2.50 20.87,-0.57 22.36,1.35 22.56,3.02 22.76,4.68 22.23,6.09 21.70,7.51 20.67,9.17 19.64,10.84 18.71,11.44 17.78,12.05 16.54,13.03 15.29,14.01 13.82,14.75 12.35,15.50 11.06,16.12 9.77,16.75 7.72,16.98 5.67,17.20 4.13,17.04 2.60,16.88 1.43,16.34 0.26,15.79 -0.67,13.66 -1.62,11.53 -1.56,9.95 -1.50,8.38 -1.26,7.13 -1.03,5.89 -0.46,4.70 0.10,3.50 0.98,2.70 1.87,1.91 2.73,1.18 3.59,0.45 5.03,-0.22 6.48,-0.90 7.58,-1.24 8.69,-1.58 9.72,-1.87 10.74,-2.16 11.96,-2.16 13.17,-2.15 14.37,-2.14 15.58,-2.13 17.17,-2.13 18.77,-2.14 20.54,-2.14 22.32,-2.14 23.74,-2.03 25.17,-1.91 26.24,-1.55 27.31,-1.20 28.35,-0.75 29.39,-0.30 30.50,0.32 31.62,0.94 32.34,1.84 33.05,2.73 33.30,3.89 33.55,5.05 32.81,6.74 32.08,8.43 30.83,9.27 29.59,10.10 28.39,10.52 27.19,10.93 25.90,11.51 24.62,12.09 23.38,12.40 22.14,12.71 21.04,12.91 19.95,13.11 18.47,13.71 17.00,14.31 15.58,14.92 14.16,15.52 13.02,16.11 11.88,16.70 10.75,16.93 9.63,17.17 8.16,17.08 6.68,17.00 5.64,16.71 4.60,16.43 3.59,15.44 2.58,14.44 1.95,12.96 1.31,11.47 0.67,9.74 0.03,8.01 -0.24,6.80 -0.51,5.60 -0.18,3.28 0.15,0.96 0.89,0.09 1.64,-0.77 3.25,-1.60 4.86,-2.44 6.84,-2.66 8.81,-2.88 10.59,-2.80 12.37,-2.72 13.65,-2.47 14.93,-2.22 16.07,-1.64 17.21,-1.06 18.19,1.05 19.16,3.17 18.97,4.30 18.78,5.44 17.82,6.78 16.86,8.11 16.36,9.34 15.85,10.57 15.28,11.70 14.70,12.83 13.55,14.12 12.39,15.40 11.29,16.09 10.18,16.78 8.46,17.03 6.74,17.29 4.75,17.21 2.77,17.12 1.42,16.44 0.08,15.76 -1.14,14.94 -2.38,14.11 -3.10,13.05 -3.82,11.99 -4.41,10.99 -5.00,9.99 -5.27,8.36 -5.54,6.74 -5.52,5.57 -5.51,4.40 -5.37,2.97 -5.24,1.55 -4.18,-0.46 -3.12,-2.48 -2.27,-3.34 -1.41,-4.20 -0.02,-5.36 1.37,-6.53 3.38,-6.88 5.39,-7.24 6.97,-7.23 8.55,-7.22 10.16,-7.22 11.77,-7.22 13.60,-7.16 15.43,-7.09 16.68,-6.88 17.92,-6.67 18.88,-6.19 19.85,-5.72 21.80,-4.47 23.74,-3.22 24.89,-2.33 26.03,-1.45 26.81,-0.59 27.60,0.27 28.39,1.27 29.19,2.28 29.96,3.04 30.72,3.81 31.15,5.00 31.57,6.19 31.55,7.82 31.52,9.45 31.36,10.53 31.19,11.61 29.89,13.27 28.59,14.93 27.24,15.82 25.88,16.71 23.85,17.20 21.81,17.69 20.83,18.17 19.84,18.65 18.46,19.05 17.07,19.45 15.85,19.76 14.62,20.06 12.61,20.31 10.59,20.56 9.46,20.75 8.33,20.94 6.86,20.88 5.38,20.81 4.31,20.73 3.24,20.65 2.09,20.48 0.95,20.31 -0.26,19.54 -1.47,18.77 -1.73,17.05 -1.98,15.34 -1.92,13.92 -1.86,12.50 -1.96,10.01 -2.06,7.51 -2.19,3.75 -2.33,0 -2.29,-0.27 -2.26,-0.55 -2.16,-0.82 -2.06,-1.08 -1.90,-1.31 -1.74,-1.54 -1.53,-1.73 -1.32,-1.91 -1.07,-2.04 -0.82,-2.18 -0.55,-2.24 -0.28,-2.31 0.00,-2.31 0.28,-2.31 0.55,-2.24 0.82,-2.18 1.07,-2.04 1.32,-1.91 1.53,-1.73 1.74,-1.54 1.90,-1.31 2.06,-1.08 2.16,-0.82 2.26,-0.55 2.29,-0.27 2.33,0.00 2.33,0.00 L 2.33,0 Z"></path></g><g stroke-linecap="round" transform="translate(449.1444204696278 195.6716360749488) rotate(0 20.862847347766774 14.32376849155662)"><path d="M0 0 C14.12 0.6, 28.26 0.21, 41.73 0 M0 0 C13.41 0.5, 25.85 0.14, 41.73 0 M41.73 0 C42.29 6.16, 40.7 12.74, 41.73 28.65 M41.73 0 C41.92 11.75, 41.61 22.34, 41.73 28.65 M41.73 28.65 C29.93 27.54, 18.18 29.32, 0 28.65 M41.73 28.65 C26.11 28.93, 10.82 29.14, 0 28.65 M0 28.65 C0.49 19.59, 0.1 10.69, 0 0 M0 28.65 C0.26 17.92, -0.39 7.92, 0 0" stroke="#e03131" stroke-width="1" fill="none"></path></g><g transform="translate(34.81553767560956 137.386776232386) rotate(0 55.02995300292969 12.5)"><text x="0" y="17.52" font-family="Virgil, Segoe UI Emoji" font-size="20px" fill="#1e1e1e" text-anchor="start" style="white-space: pre;" direction="ltr" dominant-baseline="alphabetic">- Even size</text></g><g transform="translate(13.789419596517632 279.11856786926796) rotate(0 173.5699005126953 37.5)"><text x="0" y="17.52" font-family="Virgil, Segoe UI Emoji" font-size="20px" fill="#1e1e1e" text-anchor="start" style="white-space: pre;" direction="ltr" dominant-baseline="alphabetic">- Odd size</text><text x="0" y="42.519999999999996" font-family="Virgil, Segoe UI Emoji" font-size="20px" fill="#1e1e1e" text-anchor="start" style="white-space: pre;" direction="ltr" dominant-baseline="alphabetic">consider list = [1,2,5,4,8,9,3]</text><text x="0" y="67.52" font-family="Virgil, Segoe UI Emoji" font-size="20px" fill="#1e1e1e" text-anchor="start" style="white-space: pre;" direction="ltr" dominant-baseline="alphabetic">Sort the array =&gt; [1,2,3,4,5,8,9]  </text></g><g stroke-opacity="0.2" fill-opacity="0.2" transform="translate(269.99697273007894 337.52458609321445) rotate(0 -0.7786989034332237 3.5043767786371802)" stroke="none"><path fill="#f08c00" d="M 0,2.66 Q 0,2.66 -1.11,2.68 -2.23,2.70 -3.90,2.76 -5.57,2.82 -4.42,2.48 -3.27,2.13 -2.04,2.13 -0.81,2.13 0.33,1.46 1.48,0.80 2.91,-0.02 4.33,-0.86 3.00,-0.60 1.67,-0.34 0.23,0.12 -1.20,0.59 -1.12,1.88 -1.04,3.18 -0.23,4.80 0.57,6.42 1.17,5.52 1.78,4.61 2.74,3.25 3.70,1.90 2.64,1.88 1.57,1.86 0.39,1.83 -0.78,1.80 -1.63,2.61 -2.48,3.42 -2.50,1.97 -2.52,0.53 -1.98,1.53 -1.44,2.53 -0.94,3.90 -0.44,5.28 -1.15,4.34 -1.86,3.41 -0.32,4.10 1.22,4.78 2.27,5.78 3.33,6.77 4.82,5.81 6.30,4.85 5.60,5.87 4.89,6.88 4.11,5.69 3.33,4.50 2.88,3.33 2.44,2.17 1.52,2.89 0.60,3.60 -1.03,4.57 -2.67,5.53 -1.98,7.09 -1.30,8.65 -0.52,7.84 0.24,7.03 1.26,6.06 2.29,5.09 3.46,3.95 4.64,2.82 3.48,2.14 2.33,1.47 1.07,1.35 -0.18,1.24 -1.58,1.21 -2.99,1.18 -4.22,1.84 -5.44,2.50 -5.01,1.44 -4.57,0.38 -3.43,1.95 -2.30,3.53 -1.81,4.85 -1.33,6.18 0.46,5.71 2.27,5.24 3.90,3.87 5.54,2.49 4.05,3.05 2.56,3.60 1.28,3.59 0.01,3.57 -1.25,3.58 -2.52,3.59 -3.40,3.82 -4.28,4.04 -4.71,3.99 -5.14,3.94 -5.55,3.79 -5.95,3.63 -6.31,3.39 -6.67,3.14 -6.96,2.81 -7.24,2.49 -7.45,2.10 -7.65,1.72 -7.75,1.30 -7.85,0.88 -7.85,0.44 -7.85,0.01 -7.75,-0.40 -7.65,-0.82 -7.44,-1.21 -7.24,-1.59 -6.95,-1.92 -6.67,-2.24 -6.31,-2.49 -5.95,-2.74 -5.55,-2.89 -5.14,-3.04 -4.71,-3.10 -4.28,-3.15 -2.30,-3.11 -0.32,-3.08 0.17,-3.05 0.67,-3.02 1.14,-2.83 1.60,-2.64 1.98,-2.32 2.36,-1.99 2.62,-1.56 2.88,-1.13 2.98,-0.64 3.09,-0.15 3.03,0.34 2.98,0.84 2.76,1.29 2.55,1.74 2.20,2.11 1.86,2.47 1.42,2.70 0.97,2.93 0.48,3.01 -0.01,3.09 -0.50,3.01 -1.00,2.93 -1.44,2.69 -1.88,2.45 -2.22,2.09 -2.57,1.72 -2.77,1.27 -2.98,0.81 -3.03,0.31 -3.09,-0.18 -2.98,-0.66 -2.87,-1.15 -2.61,-1.58 -2.35,-2.01 -1.96,-2.33 -1.58,-2.66 -1.11,-2.84 -0.65,-3.02 -0.15,-3.05 0.34,-3.07 0.83,-2.94 1.31,-2.80 1.72,-2.52 2.13,-2.23 2.44,-1.83 2.74,-1.43 2.90,-0.96 3.05,-0.48 3.05,0.01 3.05,0.51 2.89,0.98 2.72,1.46 2.42,1.86 2.11,2.25 1.70,2.53 1.28,2.81 0.80,2.94 0.32,3.08 0.32,3.08 0.32,3.08 -1.98,3.56 -4.28,4.04 -4.71,3.99 -5.14,3.94 -5.55,3.79 -5.95,3.63 -6.31,3.39 -6.67,3.14 -6.96,2.81 -7.24,2.49 -7.45,2.10 -7.65,1.72 -7.75,1.30 -7.85,0.88 -7.85,0.44 -7.85,0.01 -7.75,-0.40 -7.65,-0.82 -7.44,-1.21 -7.24,-1.59 -6.96,-1.92 -6.67,-2.24 -6.31,-2.49 -5.95,-2.74 -5.55,-2.89 -5.14,-3.04 -4.71,-3.10 -4.28,-3.15 -4.29,-3.27 -4.31,-3.38 -3.01,-3.48 -1.71,-3.58 -0.28,-3.57 1.14,-3.56 2.68,-3.55 4.23,-3.55 5.76,-3.38 7.29,-3.21 8.61,-2.49 9.93,-1.76 10.61,-0.63 11.28,0.49 11.64,1.72 12.00,2.96 11.63,4.63 11.27,6.30 10.57,7.20 9.88,8.09 9.04,8.95 8.20,9.82 6.24,10.95 4.28,12.09 2.78,12.89 1.28,13.69 -0.14,14.07 -1.56,14.44 -3.10,14.09 -4.63,13.74 -6.12,12.13 -7.62,10.52 -7.99,9.08 -8.37,7.64 -9.23,6.37 -10.09,5.09 -10.72,2.90 -11.35,0.72 -10.96,-0.78 -10.56,-2.29 -9.07,-3.23 -7.57,-4.17 -6.60,-4.62 -5.63,-5.06 -4.48,-5.45 -3.33,-5.84 -2.07,-5.85 -0.80,-5.87 0.26,-5.82 1.34,-5.76 3.13,-5.44 4.91,-5.13 6.03,-4.59 7.15,-4.06 8.86,-3.18 10.57,-2.30 11.16,-1.19 11.74,-0.08 11.86,1.72 11.97,3.54 11.27,5.21 10.57,6.89 9.49,8.03 8.41,9.17 7.16,10.02 5.92,10.88 5.02,11.84 4.13,12.81 3.15,13.32 2.17,13.83 0.87,14.11 -0.42,14.40 -2.36,14.21 -4.30,14.01 -5.60,13.22 -6.90,12.44 -7.66,10.88 -8.42,9.32 -8.69,7.28 -8.97,5.24 -8.69,3.84 -8.40,2.44 -7.36,1.38 -6.32,0.31 -4.93,-1.19 -3.54,-2.69 -2.37,-3.12 -1.20,-3.55 0.17,-3.56 1.55,-3.58 2.85,-3.53 4.14,-3.48 5.78,-2.88 7.42,-2.28 8.59,-0.63 9.75,1.01 10.51,2.30 11.27,3.58 11.62,4.83 11.97,6.07 11.44,7.89 10.90,9.71 9.82,10.38 8.74,11.06 7.58,11.74 6.42,12.43 5.43,12.83 4.43,13.24 3.25,13.29 2.07,13.34 0.82,12.93 -0.41,12.53 -1.19,11.77 -1.97,11.02 -3.06,10.58 -4.15,10.14 -5.28,8.58 -6.41,7.03 -7.28,5.28 -8.14,3.54 -8.23,1.95 -8.31,0.37 -7.23,-1.00 -6.15,-2.38 -4.66,-3.33 -3.17,-4.28 -1.95,-4.58 -0.74,-4.87 0.61,-4.82 1.97,-4.76 3.45,-4.69 4.94,-4.61 6.15,-4.23 7.36,-3.85 8.29,-3.22 9.22,-2.59 9.91,-1.31 10.61,-0.03 10.33,2.12 10.04,4.28 9.15,5.60 8.25,6.91 7.62,7.89 7.00,8.87 6.02,10.04 5.05,11.22 3.55,12.02 2.05,12.83 0.84,13.12 -0.35,13.40 -1.90,12.88 -3.45,12.36 -4.69,10.11 -5.93,7.87 -6.72,6.73 -7.50,5.60 -7.81,4.32 -8.12,3.04 -8.24,0.89 -8.35,-1.25 -7.62,-2.52 -6.88,-3.79 -5.03,-4.80 -3.18,-5.82 -1.72,-6.47 -0.27,-7.12 2.09,-7.04 4.46,-6.97 6.03,-6.49 7.60,-6.01 8.65,-5.14 9.71,-4.27 10.40,-2.75 11.10,-1.23 10.88,0.43 10.65,2.09 9.35,3.38 8.05,4.68 6.94,5.56 5.83,6.44 3.83,7.20 1.84,7.96 -0.24,8.36 -2.33,8.76 -3.57,8.73 -4.80,8.69 -6.29,8.55 -7.77,8.42 -9.21,7.76 -10.64,7.10 -11.43,6.29 -12.22,5.47 -12.48,4.06 -12.75,2.64 -12.35,1.57 -11.94,0.50 -10.86,-0.40 -9.77,-1.31 -7.67,-2.07 -5.57,-2.82 -3.90,-2.76 -2.23,-2.70 -1.11,-2.68 0,-2.66 0.31,-2.62 0.63,-2.58 0.93,-2.47 1.23,-2.36 1.50,-2.17 1.76,-1.99 1.98,-1.75 2.19,-1.51 2.34,-1.22 2.49,-0.94 2.56,-0.63 2.64,-0.32 2.64,0.00 2.64,0.32 2.56,0.63 2.49,0.94 2.34,1.23 2.19,1.51 1.98,1.75 1.76,1.99 1.50,2.17 1.23,2.36 0.93,2.47 0.63,2.58 0.31,2.62 -0.00,2.66 -0.00,2.66 L 0,2.66 Z"></path></g><g stroke-opacity="0.4" fill-opacity="0.4" transform="translate(270.77574292987765 339.08209084462896) rotate(0 0.00005000000000165983 0.00004999999998744897)" stroke="none"><path fill="#f08c00" d="M 1.57,-1.57 Q 1.57,-1.57 1.77,-1.27 1.98,-0.98 2.09,-0.64 2.20,-0.29 2.19,0.05 2.18,0.41 2.05,0.75 1.93,1.09 1.70,1.37 1.48,1.65 1.18,1.84 0.87,2.04 0.52,2.12 0.18,2.21 -0.17,2.18 -0.53,2.15 -0.86,2.01 -1.19,1.87 -1.46,1.63 -1.73,1.39 -1.90,1.07 -2.08,0.76 -2.15,0.41 -2.21,0.05 -2.17,-0.29 -2.12,-0.65 -1.96,-0.97 -1.80,-1.29 -1.54,-1.54 -1.29,-1.80 -0.97,-1.96 -0.65,-2.12 -0.29,-2.17 0.06,-2.21 0.41,-2.15 0.76,-2.08 1.07,-1.90 1.39,-1.73 1.63,-1.46 1.87,-1.19 2.01,-0.86 2.15,-0.53 2.18,-0.17 2.21,0.18 2.12,0.52 2.03,0.87 1.84,1.18 1.65,1.48 1.37,1.70 1.09,1.93 0.75,2.05 0.41,2.18 0.05,2.19 -0.30,2.20 -0.64,2.09 -0.98,1.98 -1.27,1.77 -1.57,1.56 -1.57,1.57 -1.57,1.57 -1.73,1.35 -1.90,1.14 -2.01,0.90 -2.12,0.66 -2.16,0.39 -2.21,0.13 -2.20,-0.13 -2.18,-0.40 -2.10,-0.65 -2.02,-0.91 -1.88,-1.14 -1.74,-1.36 -1.55,-1.55 -1.36,-1.74 -1.14,-1.88 -0.91,-2.02 -0.65,-2.10 -0.40,-2.18 -0.13,-2.20 0.13,-2.21 0.39,-2.16 0.66,-2.12 0.90,-2.01 1.14,-1.90 1.35,-1.73 1.57,-1.57 1.57,-1.57 L 1.57,-1.57 Z"></path></g><g stroke-opacity="0.9" fill-opacity="0.9" transform="translate(259.27187128999327 360.54214070141154) rotate(0 11.166645746773384 -1.2407308434418667)" stroke="none"><path fill="#f08c00" d="M 0,-2.19 Q 0,-2.19 4.28,-2.07 8.56,-1.96 13.09,-1.87 17.62,-1.78 20.93,-1.86 24.25,-1.94 25.89,-2.18 27.54,-2.41 28.39,-2.60 29.25,-2.78 29.48,-2.78 29.72,-2.78 29.94,-2.72 30.17,-2.67 30.38,-2.56 30.58,-2.45 30.76,-2.29 30.93,-2.14 31.06,-1.95 31.19,-1.75 31.28,-1.54 31.36,-1.32 31.39,-1.09 31.41,-0.85 31.38,-0.62 31.36,-0.39 31.27,-0.17 31.19,0.03 31.06,0.22 30.92,0.42 30.75,0.57 30.57,0.72 30.37,0.83 30.16,0.94 29.93,0.99 29.71,1.05 28.12,1.21 26.53,1.38 25.02,1.48 23.51,1.59 22.14,1.77 20.76,1.96 19.37,2.07 17.97,2.18 16.23,2.18 14.48,2.19 13.00,2.56 11.52,2.93 7.41,3.59 3.31,4.25 0.53,4.50 -2.24,4.75 -3.84,4.94 -5.44,5.13 -6.60,5.21 -7.77,5.29 -8.03,5.28 -8.28,5.26 -8.53,5.19 -8.78,5.12 -9.00,4.98 -9.23,4.85 -9.41,4.67 -9.60,4.49 -9.73,4.27 -9.87,4.05 -9.95,3.80 -10.03,3.56 -10.05,3.30 -10.07,3.04 -10.02,2.79 -9.98,2.53 -9.88,2.29 -9.77,2.06 -9.61,1.85 -9.46,1.65 -9.25,1.48 -9.05,1.32 -8.82,1.21 -8.58,1.10 -8.33,1.05 -8.07,1.00 -6.46,-0.00 -4.84,-1.01 -3.43,-1.63 -2.03,-2.24 -0.55,-2.84 0.91,-3.44 2.03,-3.71 3.15,-3.97 4.23,-4.56 5.32,-5.16 6.78,-5.56 8.25,-5.96 9.35,-6.07 10.45,-6.19 11.75,-6.65 13.05,-7.11 14.29,-7.46 15.53,-7.80 16.56,-8.08 17.60,-8.36 18.21,-8.40 18.81,-8.44 19.24,-8.41 19.66,-8.38 20.06,-8.25 20.46,-8.12 20.81,-7.89 21.17,-7.67 21.46,-7.37 21.76,-7.07 21.97,-6.70 22.18,-6.34 22.30,-5.93 22.42,-5.53 22.44,-5.11 22.46,-4.69 22.38,-4.28 22.30,-3.86 22.12,-3.48 21.94,-3.10 21.68,-2.77 21.41,-2.44 21.08,-2.19 20.74,-1.93 20.35,-1.76 19.97,-1.60 19.55,-1.53 19.14,-1.46 17.52,-1.17 15.91,-0.89 14.75,-0.48 13.59,-0.08 12.20,0.35 10.82,0.79 11.58,-0.87 12.35,-2.54 11.23,-4.02 10.12,-5.49 11.06,-6.16 12.00,-6.82 15.39,-7.63 18.77,-8.43 19.20,-8.05 19.63,-7.67 19.91,-7.17 20.19,-6.67 20.30,-6.11 20.40,-5.55 20.33,-4.98 20.25,-4.41 19.99,-3.90 19.74,-3.39 19.33,-2.99 18.93,-2.58 18.42,-2.33 17.90,-2.07 17.34,-2.00 16.77,-1.92 16.21,-2.03 15.65,-2.14 15.15,-2.42 14.65,-2.70 14.27,-3.13 13.89,-3.55 13.66,-4.08 13.44,-4.60 13.39,-5.17 13.35,-5.74 13.48,-6.30 13.62,-6.85 13.93,-7.33 14.24,-7.82 14.69,-8.17 15.13,-8.53 15.67,-8.73 16.21,-8.93 16.78,-8.94 17.35,-8.96 17.90,-8.79 18.44,-8.62 18.91,-8.29 19.37,-7.95 19.70,-7.49 20.04,-7.02 20.20,-6.48 20.37,-5.93 20.36,-5.36 20.34,-4.79 20.14,-4.25 19.94,-3.71 19.59,-3.27 19.23,-2.82 18.75,-2.51 18.26,-2.21 17.71,-2.07 17.15,-1.93 16.58,-1.98 16.01,-2.02 15.49,-2.25 14.96,-2.48 14.96,-2.48 14.96,-2.48 14.79,-1.37 14.61,-0.26 13.12,0.39 11.63,1.06 10.45,1.24 9.27,1.43 8.27,0.81 7.28,0.19 6.80,-0.87 6.31,-1.94 7.61,-3.92 8.91,-5.91 10.68,-6.53 12.44,-7.15 13.74,-7.54 15.04,-7.93 16.93,-8.19 18.81,-8.44 19.23,-8.41 19.66,-8.38 20.06,-8.25 20.46,-8.12 20.81,-7.89 21.17,-7.67 21.46,-7.37 21.76,-7.07 21.97,-6.70 22.18,-6.34 22.30,-5.93 22.42,-5.53 22.44,-5.11 22.46,-4.69 22.38,-4.28 22.30,-3.86 22.12,-3.48 21.94,-3.10 21.68,-2.77 21.41,-2.44 21.08,-2.19 20.74,-1.93 20.35,-1.77 19.97,-1.60 19.55,-1.53 19.14,-1.46 18.61,-1.47 18.08,-1.48 17.01,-1.34 15.93,-1.21 14.80,-0.80 13.67,-0.40 12.37,-0.06 11.06,0.27 9.94,0.22 8.82,0.17 7.71,0.26 6.60,0.35 5.71,0.92 4.81,1.49 3.09,1.73 1.37,1.97 -0.03,2.42 -1.44,2.87 -3.06,3.24 -4.68,3.61 -6.22,4.45 -7.77,5.29 -8.03,5.28 -8.28,5.26 -8.53,5.19 -8.78,5.12 -9.00,4.98 -9.23,4.85 -9.41,4.67 -9.60,4.49 -9.73,4.27 -9.87,4.05 -9.95,3.80 -10.03,3.56 -10.05,3.30 -10.07,3.04 -10.02,2.79 -9.98,2.53 -9.88,2.29 -9.77,2.06 -9.61,1.85 -9.46,1.65 -9.25,1.48 -9.05,1.32 -8.82,1.21 -8.58,1.10 -8.33,1.05 -8.07,1.00 -6.92,1.20 -5.77,1.40 -4.21,1.32 -2.66,1.23 -0.03,0.84 2.59,0.44 6.52,-0.40 10.45,-1.26 12.41,-1.77 14.38,-2.28 16.05,-2.33 17.72,-2.39 18.99,-2.42 20.26,-2.45 21.79,-2.60 23.33,-2.75 24.64,-2.76 25.95,-2.77 27.60,-2.77 29.25,-2.78 29.48,-2.78 29.72,-2.78 29.94,-2.72 30.17,-2.67 30.38,-2.56 30.58,-2.45 30.76,-2.29 30.93,-2.14 31.06,-1.95 31.19,-1.75 31.28,-1.54 31.36,-1.32 31.39,-1.09 31.41,-0.86 31.38,-0.62 31.36,-0.39 31.27,-0.18 31.19,0.03 31.06,0.22 30.92,0.42 30.75,0.57 30.57,0.72 30.37,0.83 30.16,0.94 29.93,0.99 29.71,1.05 28.83,1.04 27.95,1.03 26.17,1.20 24.39,1.37 21.00,1.57 17.62,1.78 13.09,1.87 8.56,1.96 4.28,2.07 0,2.19 -0.26,2.16 -0.52,2.12 -0.77,2.03 -1.01,1.94 -1.23,1.79 -1.45,1.64 -1.62,1.44 -1.80,1.24 -1.92,1.01 -2.05,0.77 -2.11,0.52 -2.17,0.26 -2.17,-0.00 -2.17,-0.26 -2.11,-0.52 -2.05,-0.77 -1.92,-1.01 -1.80,-1.24 -1.62,-1.44 -1.45,-1.64 -1.23,-1.79 -1.01,-1.94 -0.77,-2.03 -0.52,-2.12 -0.26,-2.16 0.00,-2.19 0.00,-2.19 L 0,-2.19 Z"></path></g><g stroke-opacity="0.9" fill-opacity="0.9" transform="translate(14.414352936179057 368.2560305330593) rotate(0 374.81964111328125 12.5)"><text x="0" y="17.52" font-family="Virgil, Segoe UI Emoji" font-size="20px" fill="#1e1e1e" text-anchor="start" style="white-space: pre;" direction="ltr" dominant-baseline="alphabetic">if list is of odd length then the middle element of sorted list is the median</text></g><g stroke-opacity="0.9" fill-opacity="0.9" stroke-linecap="round" transform="translate(568.2901187233107 116.99822352116195) rotate(0 234.96260664643285 117.0162931624662)"><path d="M0 0 C105.4 0, 210.8 0, 469.93 0 M0 0 C187.23 0, 374.45 0, 469.93 0 M469.93 0 C469.93 51, 469.93 101.99, 469.93 234.03 M469.93 0 C469.93 71.44, 469.93 142.87, 469.93 234.03 M469.93 234.03 C360.26 234.03, 250.59 234.03, 0 234.03 M469.93 234.03 C287.66 234.03, 105.4 234.03, 0 234.03 M0 234.03 C0 165.34, 0 96.65, 0 0 M0 234.03 C0 184.92, 0 135.8, 0 0" stroke="#1e1e1e" stroke-width="1" fill="none"></path></g><g stroke-opacity="0.9" fill-opacity="0.9" transform="translate(589.537002167158 124.00711054806825) rotate(0 111.328125 12)"><text x="0" y="19.3125" font-family="Cascadia, Segoe UI Emoji" font-size="20px" fill="#2f9e44" text-anchor="start" style="white-space: pre;" direction="ltr" dominant-baseline="alphabetic">int arr[], int size</text></g><g stroke-opacity="0.9" fill-opacity="0.9" transform="translate(595.4230070069092 156.07029903504335) rotate(0 87.890625 24)"><text x="0" y="19.3125" font-family="Cascadia, Segoe UI Emoji" font-size="20px" fill="#2f9e44" text-anchor="start" style="white-space: pre;" direction="ltr" dominant-baseline="alphabetic">sort(arr);</text><text x="0" y="43.3125" font-family="Cascadia, Segoe UI Emoji" font-size="20px" fill="#2f9e44" text-anchor="start" style="white-space: pre;" direction="ltr" dominant-baseline="alphabetic">middle = arr/2;</text></g><g stroke-opacity="0.9" fill-opacity="0.9" transform="translate(587.352052513845 211.76210696722958) rotate(0 210.5498466802582 22.695057157956256)"><text x="0" y="18.26242880679292" font-family="Cascadia, Segoe UI Emoji" font-size="18.912547631630204px" fill="#2f9e44" text-anchor="start" style="white-space: pre;" direction="ltr" dominant-baseline="alphabetic">if(size%2)</text><text x="0" y="40.95748596474917" font-family="Cascadia, Segoe UI Emoji" font-size="18.912547631630204px" fill="#2f9e44" text-anchor="start" style="white-space: pre;" direction="ltr" dominant-baseline="alphabetic">median = (arr[middle]+arr[middle-1])/2</text></g><g stroke-opacity="0.9" fill-opacity="0.9" transform="translate(594.4917452130829 260.99248008604206) rotate(0 117.1875 24)"><text x="0" y="19.3125" font-family="Cascadia, Segoe UI Emoji" font-size="20px" fill="#2f9e44" text-anchor="start" style="white-space: pre;" direction="ltr" dominant-baseline="alphabetic">else</text><text x="0" y="43.3125" font-family="Cascadia, Segoe UI Emoji" font-size="20px" fill="#2f9e44" text-anchor="start" style="white-space: pre;" direction="ltr" dominant-baseline="alphabetic">median = arr[middle]</text></g></svg>