<svg version="1.1" xmlns="http://www.w3.org/2000/svg" viewBox="0 0 793.4310048038326 641.598387806561" width="1586.8620096076652" height="1283.196775613122" filter="invert(93%) hue-rotate(180deg)">
  <!-- svg-source:excalidraw -->
  
  <defs>
    <style class="style-fonts">
      @font-face {
        font-family: "Virgil";
        src: url("https://excalidraw.com/Virgil.woff2");
      }
      @font-face {
        font-family: "Cascadia";
        src: url("https://excalidraw.com/Cascadia.woff2");
      }
      @font-face {
        font-family: "Assistant";
        src: url("https://excalidraw.com/Assistant-Regular.woff2");
      }
    </style>
    
  </defs>
  <rect x="0" y="0" width="793.4310048038326" height="641.598387806561" fill="#ffffff"></rect><g stroke-opacity="0.9" fill-opacity="0.9" transform="translate(17.124902233156774 10) rotate(0 239.22982788085938 12.5)"><text x="0" y="17.52" font-family="Virgil, Segoe UI Emoji" font-size="20px" fill="#1e1e1e" text-anchor="start" style="white-space: pre;" direction="ltr" dominant-baseline="alphabetic">GOAL: Check if given number is armstrong or not</text></g><g stroke-opacity="0.9" fill-opacity="0.9" transform="translate(24.7314902395903 58.656094070345944) rotate(0 93.50991821289062 12.5)"><text x="0" y="17.52" font-family="Virgil, Segoe UI Emoji" font-size="20px" fill="#1e1e1e" text-anchor="start" style="white-space: pre;" direction="ltr" dominant-baseline="alphabetic">Armstrong Number: </text></g><g stroke-linecap="round"><g stroke-opacity="0.9" fill-opacity="0.9" transform="translate(10 35.3312532563865) rotate(0 32.532050311791124 0)"><path d="M0 0 C19.01 0, 38.03 0, 65.06 0 M0 0 C19.54 0, 39.07 0, 65.06 0" stroke="#2f9e44" stroke-width="2" fill="none"></path></g></g><mask></mask><g stroke-linecap="round"><g stroke-opacity="0.9" fill-opacity="0.9" transform="translate(27.18675734491387 89.96051082947528) rotate(0 86.8544205702803 -3.375957147210187)"><path d="M0 0 C66.9 -2.6, 133.79 -5.2, 173.71 -6.75 M0 0 C38.68 -1.5, 77.36 -3.01, 173.71 -6.75" stroke="#2f9e44" stroke-width="2" fill="none"></path></g></g><mask></mask><g stroke-opacity="0.9" fill-opacity="0.9" transform="translate(38.84917775189359 101.3160158237676) rotate(0 331.25970458984375 49.999999999999986)"><text x="0" y="17.52" font-family="Virgil, Segoe UI Emoji" font-size="20px" fill="#2f9e44" text-anchor="start" style="white-space: pre;" direction="ltr" dominant-baseline="alphabetic">Armstrong number is 3 digit number </text><text x="0" y="42.519999999999996" font-family="Virgil, Segoe UI Emoji" font-size="20px" fill="#2f9e44" text-anchor="start" style="white-space: pre;" direction="ltr" dominant-baseline="alphabetic">The sum of the cubes of individual numbers of given 3 digit number</text><text x="0" y="67.52" font-family="Virgil, Segoe UI Emoji" font-size="20px" fill="#2f9e44" text-anchor="start" style="white-space: pre;" direction="ltr" dominant-baseline="alphabetic"> is same as the given number</text><text x="0" y="92.52" font-family="Virgil, Segoe UI Emoji" font-size="20px" fill="#2f9e44" text-anchor="start" style="white-space: pre;" direction="ltr" dominant-baseline="alphabetic"></text></g><g stroke-opacity="0.9" fill-opacity="0.9" transform="translate(28.41436279948789 220.70248670583905) rotate(0 39.52996826171875 12.5)"><text x="0" y="17.52" font-family="Virgil, Segoe UI Emoji" font-size="20px" fill="#2f9e44" text-anchor="start" style="white-space: pre;" direction="ltr" dominant-baseline="alphabetic">Sample: </text></g><g stroke-opacity="0.9" fill-opacity="0.9" transform="translate(123.24833121685032 240.03756764530127) rotate(0 117.7499008178711 25)"><text x="0" y="17.52" font-family="Virgil, Segoe UI Emoji" font-size="20px" fill="#2f9e44" text-anchor="start" style="white-space: pre;" direction="ltr" dominant-baseline="alphabetic">153 is armstrong number</text><text x="0" y="42.519999999999996" font-family="Virgil, Segoe UI Emoji" font-size="20px" fill="#2f9e44" text-anchor="start" style="white-space: pre;" direction="ltr" dominant-baseline="alphabetic">because </text></g><g stroke-opacity="0.9" fill-opacity="0.9" transform="translate(186.45901800243436 312.86865470462635) rotate(0 -1.232214473718372 12.784196080383964)" stroke="none"><path fill="#2f9e44" d="M 2.12,0 Q 2.12,0 2.01,2.56 1.90,5.13 1.82,7.73 1.74,10.33 1.69,13.47 1.63,16.61 1.46,18.55 1.29,20.50 1.22,21.98 1.14,23.46 0.29,24.85 -0.54,26.25 -0.70,26.54 -0.86,26.82 -1.11,27.05 -1.35,27.27 -1.65,27.40 -1.95,27.53 -2.28,27.56 -2.61,27.59 -2.93,27.52 -3.25,27.44 -3.53,27.26 -3.80,27.09 -4.01,26.83 -4.22,26.58 -4.34,26.27 -4.45,25.96 -4.47,25.63 -4.48,25.31 -4.38,24.99 -4.29,24.68 -4.10,24.41 -3.91,24.14 -3.64,23.94 -3.38,23.75 -3.06,23.65 -2.75,23.55 -2.42,23.56 -2.09,23.56 -1.78,23.67 -1.47,23.78 -1.22,23.99 -0.96,24.19 -0.78,24.47 -0.60,24.74 -0.52,25.06 -0.43,25.38 -0.46,25.71 -0.48,26.04 -0.61,26.34 -0.74,26.64 -0.95,26.89 -1.17,27.14 -1.46,27.30 -1.74,27.47 -2.06,27.53 -2.39,27.60 -2.71,27.55 -3.04,27.51 -3.34,27.37 -3.63,27.23 -3.87,26.99 -4.10,26.76 -4.25,26.47 -4.40,26.18 -4.45,25.85 -4.49,25.53 -4.43,25.20 -4.37,24.88 -4.37,24.88 -4.37,24.88 -3.50,23.56 -2.63,22.25 -2.32,21.21 -2.00,20.18 -1.81,18.40 -1.63,16.61 -1.69,13.47 -1.74,10.33 -1.82,7.73 -1.90,5.13 -2.01,2.56 -2.12,0 -2.09,-0.25 -2.06,-0.50 -1.97,-0.74 -1.88,-0.98 -1.73,-1.19 -1.58,-1.40 -1.39,-1.57 -1.20,-1.74 -0.97,-1.86 -0.75,-1.98 -0.50,-2.04 -0.25,-2.10 0.00,-2.10 0.25,-2.10 0.50,-2.04 0.75,-1.98 0.98,-1.86 1.20,-1.74 1.39,-1.57 1.59,-1.40 1.73,-1.19 1.88,-0.98 1.97,-0.74 2.06,-0.50 2.09,-0.25 2.12,0.00 2.12,0.00 L 2.12,0 Z"></path></g><g stroke-opacity="0.9" fill-opacity="0.9" transform="translate(191.3878617957592 298.390157553452) rotate(0 6.777169029289496 3.5426051544320387)" stroke="none"><path fill="#2f9e44" d="M -0.79,-2.28 Q -0.79,-2.28 1.28,-2.86 3.37,-3.43 4.45,-3.81 5.54,-4.19 7.43,-3.51 9.33,-2.84 9.46,-1.29 9.60,0.25 8.73,1.70 7.85,3.16 7.87,1.74 7.89,0.32 8.51,-0.82 9.13,-1.97 10.57,-2.25 12.00,-2.53 13.17,-2.32 14.34,-2.12 15.43,-0.98 16.52,0.14 16.70,1.46 16.88,2.79 16.73,4.03 16.58,5.27 16.14,6.33 15.70,7.40 14.83,8.37 13.96,9.34 12.90,10.00 11.83,10.66 10.77,11.45 9.70,12.23 8.59,12.51 7.48,12.79 5.45,12.98 3.41,13.17 2.83,13.08 2.25,12.99 1.73,12.72 1.21,12.45 0.81,12.02 0.40,11.60 0.15,11.07 -0.09,10.54 -0.16,9.96 -0.22,9.38 -0.10,8.80 0.01,8.23 0.31,7.73 0.60,7.22 1.05,6.84 1.49,6.46 2.03,6.23 2.58,6.01 3.16,5.98 3.75,5.94 4.31,6.09 4.88,6.25 5.37,6.57 5.85,6.90 6.21,7.36 6.57,7.82 6.76,8.38 6.95,8.93 6.96,9.52 6.96,10.10 6.78,10.66 6.60,11.22 6.25,11.69 5.89,12.15 5.41,12.49 4.93,12.82 4.37,12.98 3.80,13.14 3.22,13.12 2.63,13.09 2.09,12.88 1.54,12.66 1.09,12.29 0.64,11.91 0.33,11.41 0.03,10.91 -0.09,10.34 -0.22,9.77 -0.16,9.19 -0.10,8.60 0.13,8.07 0.37,7.53 0.77,7.11 1.17,6.68 1.69,6.40 2.20,6.12 2.78,6.02 3.36,5.92 3.36,5.92 3.35,5.92 4.83,6.05 6.30,6.19 7.32,5.48 8.34,4.77 9.69,4.31 11.05,3.86 9.59,4.20 8.14,4.54 7.00,4.60 5.86,4.66 4.81,3.86 3.77,3.06 3.59,1.70 3.40,0.34 4.17,-0.62 4.94,-1.59 4.85,-0.49 4.77,0.59 2.78,1.44 0.79,2.28 0.51,2.35 0.22,2.41 -0.06,2.40 -0.35,2.39 -0.64,2.31 -0.92,2.24 -1.17,2.09 -1.43,1.95 -1.64,1.75 -1.85,1.55 -2.01,1.31 -2.17,1.06 -2.27,0.79 -2.36,0.51 -2.39,0.22 -2.42,-0.06 -2.37,-0.35 -2.33,-0.64 -2.22,-0.91 -2.11,-1.18 -1.94,-1.42 -1.76,-1.65 -1.54,-1.84 -1.32,-2.03 -1.05,-2.15 -0.79,-2.28 -0.79,-2.28 L -0.79,-2.28 Z"></path></g><g stroke-opacity="0.9" fill-opacity="0.9" transform="translate(223.1173192743446 322.72634229127596) rotate(0 11.55198865743992 0.9241590925951755)" stroke="none"><path fill="#2f9e44" d="M 0.21,-2.21 Q 0.21,-2.21 2.94,-1.83 5.68,-1.44 7.51,-1.30 9.35,-1.16 11.22,-1.01 13.09,-0.85 15.00,-0.59 16.90,-0.34 18.34,-0.30 19.79,-0.25 21.46,-0.21 23.13,-0.16 23.45,-0.10 23.77,-0.04 24.06,0.10 24.34,0.26 24.56,0.50 24.78,0.74 24.92,1.04 25.05,1.34 25.08,1.66 25.11,1.99 25.03,2.30 24.96,2.62 24.78,2.90 24.61,3.17 24.36,3.38 24.11,3.58 23.80,3.70 23.50,3.82 23.17,3.83 22.85,3.84 22.54,3.75 22.22,3.66 21.96,3.47 21.69,3.28 21.50,3.02 21.31,2.76 21.21,2.45 21.11,2.14 21.11,1.81 21.12,1.48 21.23,1.18 21.34,0.87 21.54,0.62 21.74,0.36 22.01,0.18 22.28,0.00 22.60,-0.07 22.91,-0.15 23.24,-0.13 23.56,-0.10 23.86,0.01 24.17,0.14 24.41,0.35 24.65,0.57 24.82,0.85 24.98,1.13 25.05,1.45 25.11,1.77 25.07,2.09 25.03,2.41 24.89,2.71 24.75,3.00 24.52,3.23 24.29,3.47 24.00,3.61 23.71,3.76 23.39,3.81 23.07,3.86 23.07,3.86 23.07,3.86 21.30,3.75 19.52,3.65 17.98,3.50 16.43,3.34 14.62,3.13 12.82,2.91 10.97,2.79 9.12,2.68 7.21,2.59 5.29,2.50 2.54,2.36 -0.21,2.21 -0.47,2.15 -0.73,2.10 -0.97,1.98 -1.22,1.86 -1.42,1.68 -1.63,1.51 -1.78,1.29 -1.94,1.08 -2.04,0.83 -2.14,0.58 -2.18,0.31 -2.22,0.05 -2.20,-0.21 -2.17,-0.48 -2.08,-0.73 -1.99,-0.98 -1.84,-1.21 -1.70,-1.43 -1.50,-1.61 -1.30,-1.80 -1.07,-1.93 -0.83,-2.06 -0.58,-2.13 -0.32,-2.20 -0.05,-2.20 0.21,-2.21 0.21,-2.21 L 0.21,-2.21 Z"></path></g><g stroke-opacity="0.9" fill-opacity="0.9" transform="translate(233.2830692928917 310.7122740875384) rotate(0 0.15403121594874847 13.4003068426303)" stroke="none"><path fill="#2f9e44" d="M 2.18,0 Q 2.18,0 2.06,2.21 1.95,4.42 1.95,7.55 1.95,10.68 1.93,13.37 1.90,16.05 1.97,17.72 2.03,19.39 2.09,20.99 2.15,22.60 2.23,24.70 2.31,26.80 2.25,27.17 2.19,27.54 2.02,27.87 1.84,28.20 1.57,28.46 1.30,28.72 0.96,28.87 0.62,29.03 0.24,29.07 -0.12,29.11 -0.49,29.03 -0.85,28.95 -1.18,28.76 -1.50,28.56 -1.74,28.28 -1.98,27.99 -2.12,27.64 -2.26,27.29 -2.28,26.92 -2.30,26.54 -2.20,26.18 -2.10,25.82 -1.89,25.51 -1.68,25.20 -1.38,24.97 -1.08,24.75 -0.73,24.63 -0.37,24.51 0.00,24.51 0.37,24.51 0.73,24.63 1.08,24.75 1.38,24.97 1.68,25.20 1.89,25.51 2.10,25.82 2.20,26.18 2.30,26.55 2.28,26.92 2.26,27.30 2.12,27.64 1.98,27.99 1.74,28.28 1.50,28.56 1.17,28.76 0.85,28.95 0.49,29.03 0.12,29.11 -0.24,29.07 -0.62,29.03 -0.96,28.87 -1.30,28.72 -1.57,28.46 -1.84,28.20 -2.02,27.87 -2.19,27.54 -2.25,27.16 -2.31,26.79 -2.31,26.79 -2.31,26.80 -2.10,24.28 -1.89,21.76 -1.68,20.59 -1.46,19.42 -1.43,17.76 -1.40,16.10 -1.50,13.44 -1.60,10.78 -1.77,7.60 -1.95,4.42 -2.06,2.21 -2.18,0 -2.14,-0.26 -2.11,-0.52 -2.02,-0.76 -1.93,-1.01 -1.78,-1.22 -1.63,-1.44 -1.43,-1.62 -1.23,-1.79 -1.00,-1.91 -0.77,-2.03 -0.51,-2.10 -0.26,-2.16 0.00,-2.16 0.26,-2.16 0.51,-2.10 0.77,-2.03 1.00,-1.91 1.23,-1.79 1.43,-1.62 1.63,-1.44 1.78,-1.22 1.93,-1.01 2.02,-0.76 2.11,-0.52 2.14,-0.26 2.18,0.00 2.18,0.00 L 2.18,0 Z"></path></g><g stroke-opacity="0.9" fill-opacity="0.9" transform="translate(267.1689214901137 310.40423985873826) rotate(0 6.93119319446393 -1.0781903085439524)" stroke="none"><path fill="#2f9e44" d="M -0.10,-2.25 Q -0.10,-2.25 1.75,-2.28 3.61,-2.31 5.83,-2.50 8.05,-2.69 10.51,-3.32 12.96,-3.95 13.27,-4.05 13.58,-4.14 13.91,-4.14 14.23,-4.13 14.54,-4.02 14.84,-3.91 15.10,-3.70 15.35,-3.50 15.53,-3.22 15.70,-2.95 15.78,-2.64 15.86,-2.32 15.84,-2.00 15.81,-1.67 15.68,-1.37 15.56,-1.07 15.34,-0.83 15.12,-0.59 14.84,-0.43 14.56,-0.26 14.24,-0.20 13.92,-0.14 13.59,-0.18 13.27,-0.23 12.98,-0.37 12.69,-0.51 12.46,-0.74 12.23,-0.97 12.08,-1.26 11.94,-1.56 11.89,-1.88 11.85,-2.20 11.91,-2.52 11.97,-2.84 12.13,-3.12 12.29,-3.41 12.53,-3.63 12.77,-3.84 13.07,-3.97 13.37,-4.10 13.69,-4.13 14.02,-4.16 14.33,-4.08 14.65,-4.00 14.92,-3.83 15.20,-3.65 15.40,-3.40 15.61,-3.15 15.72,-2.84 15.83,-2.54 15.84,-2.21 15.85,-1.88 15.76,-1.57 15.66,-1.26 15.47,-1.00 15.28,-0.73 15.02,-0.54 14.76,-0.35 14.76,-0.35 14.76,-0.35 11.66,0.38 8.56,1.12 6.19,1.54 3.82,1.96 1.96,2.10 0.10,2.25 -0.16,2.23 -0.43,2.21 -0.69,2.12 -0.95,2.04 -1.18,1.90 -1.41,1.75 -1.60,1.56 -1.79,1.36 -1.93,1.13 -2.06,0.89 -2.14,0.63 -2.22,0.37 -2.23,0.10 -2.24,-0.16 -2.19,-0.43 -2.14,-0.69 -2.02,-0.94 -1.91,-1.19 -1.74,-1.40 -1.57,-1.61 -1.35,-1.78 -1.14,-1.94 -0.89,-2.05 -0.64,-2.16 -0.37,-2.20 -0.10,-2.25 -0.10,-2.25 L -0.10,-2.25 Z"></path></g><g stroke-opacity="0.9" fill-opacity="0.9" transform="translate(266.8608590582162 310.40423985873826) rotate(0 9.087559710003177 13.862386388927888)" stroke="none"><path fill="#2f9e44" d="M 2.48,0 Q 2.48,0 2.44,1.68 2.40,3.36 2.44,4.43 2.48,5.50 2.40,7.09 2.32,8.68 1.24,9.87 0.17,11.06 0.10,9.49 0.03,7.91 -1.27,7.75 -2.59,7.58 -1.67,6.81 -0.75,6.03 0.57,5.14 1.90,4.25 3.05,4.14 4.19,4.03 5.40,3.74 6.61,3.45 8.16,3.33 9.70,3.22 10.92,3.13 12.13,3.05 13.68,3.17 15.23,3.28 16.58,4.04 17.93,4.79 19.14,6.18 20.34,7.56 21.14,8.53 21.94,9.50 23.16,11.07 24.37,12.65 24.59,13.82 24.81,14.98 24.46,16.52 24.10,18.06 23.46,19.20 22.82,20.34 21.63,21.51 20.43,22.69 19.06,23.78 17.69,24.87 16.46,25.55 15.24,26.23 14.22,26.74 13.20,27.25 12.13,27.83 11.05,28.40 10.05,28.85 9.05,29.30 7.72,30.06 6.40,30.82 5.14,30.96 3.88,31.10 2.66,30.69 1.44,30.28 0.20,29.30 -1.03,28.33 -2.33,27.16 -3.62,25.99 -4.37,24.46 -5.11,22.92 -5.90,21.11 -6.69,19.30 -6.70,18.86 -6.71,18.42 -6.62,17.99 -6.52,17.56 -6.32,17.17 -6.13,16.77 -5.84,16.44 -5.56,16.10 -5.20,15.84 -4.84,15.59 -4.43,15.42 -4.02,15.26 -3.59,15.19 -3.15,15.13 -2.71,15.18 -2.27,15.22 -1.86,15.37 -1.44,15.52 -1.08,15.76 -0.71,16.00 -0.41,16.32 -0.11,16.65 0.09,17.03 0.30,17.42 0.42,17.84 0.53,18.27 -0.37,20.12 -1.28,21.97 -1.83,22.17 -2.39,22.38 -2.98,22.39 -3.57,22.41 -4.14,22.23 -4.70,22.06 -5.18,21.72 -5.66,21.37 -6.01,20.89 -6.35,20.41 -6.52,19.84 -6.70,19.28 -6.68,18.69 -6.67,18.10 -6.46,17.54 -6.26,16.99 -5.89,16.53 -5.52,16.06 -5.02,15.75 -4.52,15.43 -3.94,15.29 -3.37,15.14 -2.78,15.19 -2.19,15.24 -1.65,15.47 -1.11,15.71 -0.67,16.10 -0.23,16.50 0.06,17.01 0.35,17.53 0.46,18.11 0.57,18.69 0.49,19.27 0.41,19.86 0.15,20.39 -0.11,20.92 -0.53,21.34 -0.94,21.76 -1.47,22.02 -2.00,22.28 -2.59,22.36 -3.18,22.44 -3.76,22.33 -4.34,22.22 -4.85,21.93 -5.37,21.63 -5.76,21.19 -6.16,20.75 -6.39,20.21 -6.62,19.67 -6.67,19.08 -6.72,18.49 -6.58,17.91 -6.43,17.34 -6.11,16.84 -5.79,16.34 -6.24,17.82 -6.69,19.30 -6.70,18.86 -6.71,18.42 -6.62,17.99 -6.52,17.56 -6.32,17.17 -6.13,16.77 -5.84,16.44 -5.56,16.10 -5.20,15.84 -4.84,15.59 -4.43,15.42 -4.02,15.26 -3.59,15.19 -3.15,15.13 -2.71,15.18 -2.28,15.22 -1.86,15.37 -1.44,15.51 -1.08,15.76 -0.71,16.00 -0.41,16.32 -0.11,16.65 0.09,17.03 0.30,17.42 0.42,17.84 0.53,18.27 1.32,20.20 2.10,22.12 1.44,21.26 0.77,20.40 1.96,21.57 3.15,22.73 3.99,23.41 4.84,24.08 6.23,23.35 7.63,22.63 8.78,21.88 9.92,21.14 11.55,20.16 13.17,19.19 14.65,18.02 16.13,16.85 17.22,16.40 18.31,15.95 17.45,15.03 16.59,14.12 15.71,12.99 14.82,11.87 13.95,10.90 13.07,9.93 11.76,9.97 10.45,10.00 8.73,10.13 7.02,10.25 5.71,10.00 4.40,9.75 3.40,10.30 2.39,10.85 1.36,11.91 0.32,12.97 -1.52,12.90 -3.37,12.84 -4.05,11.03 -4.73,9.22 -4.29,8.23 -3.85,7.23 -3.17,6.37 -2.48,5.50 -2.44,4.43 -2.40,3.36 -2.44,1.68 -2.48,0 -2.45,-0.29 -2.41,-0.59 -2.30,-0.87 -2.20,-1.15 -2.03,-1.40 -1.86,-1.64 -1.63,-1.84 -1.41,-2.04 -1.14,-2.18 -0.88,-2.32 -0.59,-2.39 -0.29,-2.46 0.00,-2.46 0.30,-2.46 0.59,-2.39 0.88,-2.32 1.14,-2.18 1.41,-2.04 1.63,-1.84 1.86,-1.64 2.03,-1.40 2.20,-1.15 2.30,-0.87 2.41,-0.59 2.45,-0.29 2.48,0.00 2.48,0.00 L 2.48,0 Z"></path></g><g stroke-opacity="0.9" fill-opacity="0.9" transform="translate(286.88429666341295 292.53715466753204) rotate(0 8.47146304930547 7.393272740761546)" stroke="none"><path fill="#2f9e44" d="M -0.21,-2.61 Q -0.21,-2.61 0.84,-2.72 1.90,-2.84 3.72,-2.79 5.55,-2.75 6.77,-1.20 7.98,0.33 8.12,1.70 8.27,3.08 8.05,4.64 7.83,6.21 7.30,7.32 6.77,8.43 6.07,9.23 5.37,10.04 5.03,10.24 4.69,10.45 4.31,10.57 3.94,10.68 3.54,10.71 3.15,10.74 2.76,10.67 2.37,10.60 2.01,10.43 1.65,10.27 1.34,10.03 1.03,9.79 0.78,9.48 0.54,9.17 0.37,8.81 0.21,8.45 0.14,8.06 0.07,7.67 0.09,7.28 0.11,6.88 0.23,6.51 0.34,6.13 0.55,5.79 0.75,5.45 1.03,5.17 1.31,4.89 2.42,4.16 3.53,3.42 4.53,2.97 5.54,2.52 6.72,1.85 7.90,1.19 9.08,0.76 10.25,0.32 11.80,0.41 13.35,0.49 14.68,1.15 16.01,1.80 16.85,2.81 17.68,3.82 18.42,4.64 19.16,5.46 19.76,7.23 20.36,9.00 20.47,10.24 20.58,11.49 19.62,13.32 18.65,15.16 17.16,16.06 15.66,16.96 14.14,17.64 12.62,18.32 11.44,18.41 10.26,18.49 9.13,18.62 8.01,18.75 5.54,18.79 3.08,18.83 2.48,18.73 1.88,18.64 1.35,18.35 0.81,18.07 0.40,17.63 -0.01,17.19 -0.27,16.64 -0.52,16.09 -0.59,15.49 -0.65,14.89 -0.52,14.30 -0.39,13.71 -0.08,13.19 0.22,12.67 0.68,12.28 1.14,11.88 1.71,11.66 2.27,11.44 2.87,11.40 3.48,11.37 4.06,11.53 4.65,11.69 5.15,12.03 5.65,12.37 6.01,12.85 6.38,13.34 6.57,13.91 6.77,14.48 6.77,15.09 6.77,15.69 6.58,16.27 6.38,16.84 6.02,17.32 5.65,17.81 5.15,18.15 4.65,18.49 4.06,18.65 3.48,18.81 2.88,18.78 2.27,18.74 1.71,18.52 1.15,18.30 0.69,17.91 0.22,17.51 -0.08,16.99 -0.39,16.48 -0.52,15.88 -0.65,15.29 -0.59,14.69 -0.52,14.09 -0.27,13.54 -0.01,12.99 0.39,12.55 0.81,12.11 1.34,11.83 1.88,11.54 2.48,11.45 3.07,11.35 3.07,11.35 3.07,11.35 5.34,11.32 7.61,11.30 8.79,11.49 9.97,11.69 11.35,11.03 12.73,10.36 13.63,9.73 14.52,9.10 13.90,10.29 13.27,11.48 13.35,10.25 13.42,9.02 12.59,8.13 11.77,7.24 10.69,7.40 9.61,7.56 8.72,8.18 7.82,8.81 6.59,9.42 5.37,10.04 5.03,10.24 4.69,10.45 4.32,10.57 3.94,10.68 3.54,10.71 3.15,10.74 2.76,10.67 2.37,10.60 2.01,10.43 1.65,10.27 1.34,10.03 1.03,9.79 0.78,9.48 0.54,9.17 0.37,8.81 0.21,8.45 0.14,8.06 0.07,7.67 0.09,7.28 0.11,6.88 0.23,6.51 0.34,6.13 0.55,5.79 0.75,5.45 1.03,5.17 1.31,4.89 1.44,4.94 1.57,4.99 1.96,3.74 2.34,2.48 1.28,2.55 0.21,2.61 -0.09,2.60 -0.41,2.58 -0.71,2.50 -1.02,2.41 -1.29,2.25 -1.56,2.09 -1.79,1.88 -2.02,1.66 -2.19,1.39 -2.36,1.12 -2.46,0.83 -2.56,0.53 -2.59,0.21 -2.61,-0.09 -2.56,-0.41 -2.52,-0.72 -2.39,-1.01 -2.27,-1.30 -2.08,-1.55 -1.89,-1.81 -1.65,-2.01 -1.40,-2.21 -1.12,-2.34 -0.83,-2.48 -0.52,-2.54 -0.21,-2.61 -0.21,-2.61 L -0.21,-2.61 Z"></path></g><g stroke-opacity="0.9" fill-opacity="0.9" transform="translate(313.68491034867355 316.56529107500705) rotate(0 10.16575001854713 -0.46207954629758774)" stroke="none"><path fill="#2f9e44" d="M -0.14,-2.35 Q -0.14,-2.35 2.78,-2.39 5.71,-2.43 7.74,-2.51 9.77,-2.59 11.52,-2.60 13.27,-2.60 15.00,-2.74 16.74,-2.88 18.53,-2.90 20.33,-2.92 20.70,-2.86 21.06,-2.80 21.39,-2.62 21.72,-2.45 21.98,-2.18 22.24,-1.91 22.39,-1.57 22.55,-1.23 22.59,-0.86 22.63,-0.49 22.55,-0.12 22.47,0.23 22.28,0.55 22.08,0.87 21.80,1.11 21.52,1.36 21.17,1.49 20.82,1.63 20.45,1.65 20.08,1.67 19.72,1.57 19.36,1.47 19.05,1.26 18.74,1.05 18.51,0.76 18.29,0.46 18.17,0.11 18.05,-0.24 18.05,-0.61 18.05,-0.99 18.17,-1.34 18.29,-1.69 18.51,-1.99 18.74,-2.29 19.05,-2.50 19.36,-2.71 19.72,-2.81 20.08,-2.91 20.45,-2.88 20.82,-2.86 21.17,-2.73 21.52,-2.59 21.80,-2.35 22.09,-2.10 22.28,-1.78 22.47,-1.46 22.55,-1.10 22.63,-0.73 22.59,-0.36 22.55,0.00 22.39,0.34 22.24,0.67 21.98,0.95 21.72,1.22 21.39,1.39 21.06,1.57 20.69,1.63 20.33,1.69 20.33,1.69 20.33,1.69 18.52,1.66 16.72,1.64 14.97,1.48 13.22,1.31 11.65,1.27 10.07,1.23 8.02,1.48 5.97,1.72 3.05,2.04 0.14,2.35 -0.14,2.33 -0.42,2.31 -0.69,2.23 -0.96,2.15 -1.21,2.00 -1.45,1.85 -1.65,1.65 -1.85,1.45 -2.00,1.21 -2.15,0.96 -2.23,0.69 -2.31,0.42 -2.33,0.14 -2.35,-0.14 -2.30,-0.42 -2.25,-0.70 -2.13,-0.96 -2.01,-1.21 -1.84,-1.44 -1.66,-1.66 -1.44,-1.84 -1.22,-2.01 -0.96,-2.13 -0.70,-2.25 -0.42,-2.30 -0.14,-2.35 -0.14,-2.35 L -0.14,-2.35 Z"></path></g><g stroke-opacity="0.9" fill-opacity="0.9" transform="translate(322.9265012746255 308.2478592416503) rotate(0 0.9241590925951755 11.397957441491172)" stroke="none"><path fill="#2f9e44" d="M 2.51,-0.37 Q 2.51,-0.37 2.71,1.40 2.90,3.18 3.28,5.33 3.66,7.47 3.97,10.12 4.28,12.76 4.35,13.86 4.42,14.96 4.52,16.32 4.62,17.67 4.54,20.30 4.46,22.92 4.36,23.38 4.27,23.85 4.03,24.26 3.79,24.66 3.43,24.98 3.07,25.29 2.63,25.47 2.19,25.65 1.72,25.68 1.25,25.71 0.79,25.58 0.33,25.46 -0.05,25.20 -0.45,24.94 -0.74,24.56 -1.03,24.19 -1.18,23.74 -1.34,23.29 -1.35,22.82 -1.35,22.35 -1.20,21.90 -1.06,21.44 -0.77,21.06 -0.49,20.68 -0.10,20.41 0.28,20.14 0.73,20.01 1.19,19.88 1.66,19.90 2.14,19.92 2.58,20.09 3.02,20.27 3.38,20.57 3.75,20.87 4.00,21.28 4.25,21.68 4.35,22.14 4.46,22.60 4.41,23.08 4.37,23.55 4.17,23.98 3.98,24.41 3.65,24.76 3.33,25.11 2.91,25.33 2.50,25.56 2.03,25.64 1.56,25.72 1.10,25.65 0.63,25.58 0.21,25.36 -0.20,25.14 -0.53,24.80 -0.86,24.46 -1.07,24.03 -1.27,23.60 -1.33,23.13 -1.38,22.66 -1.38,22.66 -1.38,22.66 -1.22,21.06 -1.06,19.46 -0.97,18.09 -0.89,16.72 -0.87,14.90 -0.85,13.08 -0.94,11.77 -1.03,10.46 -1.27,8.26 -1.51,6.06 -1.67,4.98 -1.84,3.89 -2.18,2.13 -2.51,0.37 -2.52,0.07 -2.53,-0.23 -2.47,-0.53 -2.40,-0.83 -2.27,-1.11 -2.13,-1.38 -1.93,-1.62 -1.74,-1.85 -1.49,-2.04 -1.24,-2.22 -0.96,-2.33 -0.67,-2.45 -0.37,-2.50 -0.07,-2.54 0.23,-2.51 0.54,-2.48 0.83,-2.38 1.12,-2.28 1.37,-2.12 1.63,-1.95 1.84,-1.72 2.05,-1.50 2.20,-1.23 2.35,-0.96 2.43,-0.67 2.51,-0.37 2.51,-0.37 L 2.51,-0.37 Z"></path></g><g stroke-opacity="0.9" fill-opacity="0.9" transform="translate(354.347910422862 304.5512228712696) rotate(0 2.464428947436744 12.938227296332713)" stroke="none"><path fill="#2f9e44" d="M -0.50,-2.52 Q -0.50,-2.52 0.37,-2.73 1.25,-2.95 2.46,-3.16 3.67,-3.37 4.90,-2.92 6.13,-2.47 7.05,-0.98 7.97,0.49 8.40,1.72 8.83,2.94 8.81,4.76 8.79,6.58 8.27,7.57 7.75,8.57 7.04,9.62 6.34,10.67 5.64,11.71 4.95,12.75 4.16,13.58 3.37,14.41 2.83,14.87 2.29,15.34 1.93,15.53 1.56,15.72 1.15,15.82 0.75,15.91 0.34,15.91 -0.07,15.91 -0.47,15.81 -0.87,15.70 -1.24,15.51 -1.60,15.31 -1.91,15.04 -2.22,14.76 -2.45,14.42 -2.69,14.07 -2.83,13.69 -2.98,13.30 -3.02,12.89 -3.07,12.47 -3.02,12.06 -2.96,11.65 -2.81,11.26 -2.66,10.88 -2.43,10.54 -2.19,10.20 -1.88,9.93 -1.56,9.65 -0.42,9.15 0.71,8.64 1.71,8.26 2.72,7.89 3.89,7.56 5.07,7.23 6.78,7.44 8.49,7.64 9.51,8.00 10.54,8.37 11.53,8.80 12.53,9.23 13.54,9.98 14.56,10.73 15.30,11.54 16.04,12.36 16.50,13.32 16.96,14.28 17.20,15.66 17.45,17.04 17.60,18.23 17.75,19.42 17.51,20.88 17.27,22.34 15.88,23.69 14.49,25.04 13.49,25.64 12.50,26.24 11.43,26.85 10.37,27.45 9.33,27.69 8.29,27.92 5.77,28.11 3.24,28.29 1.68,28.45 0.12,28.60 -1.09,28.84 -2.32,29.07 -3.57,29.31 -4.81,29.56 -6.70,29.16 -8.58,28.77 -10.46,26.37 -12.33,23.97 -12.44,23.45 -12.54,22.92 -12.48,22.39 -12.41,21.86 -12.18,21.38 -11.95,20.90 -11.58,20.51 -11.20,20.13 -10.73,19.88 -10.25,19.64 -9.72,19.56 -9.19,19.48 -8.66,19.58 -8.14,19.67 -7.67,19.93 -7.20,20.18 -6.83,20.58 -6.47,20.97 -6.25,21.46 -6.03,21.95 -5.98,22.48 -5.93,23.02 -6.06,23.54 -6.18,24.06 -6.46,24.51 -6.74,24.97 -7.16,25.31 -7.57,25.65 -8.07,25.84 -8.57,26.03 -9.11,26.05 -9.64,26.08 -10.15,25.93 -10.67,25.78 -11.11,25.47 -11.55,25.16 -11.86,24.73 -12.18,24.30 -12.35,23.79 -12.51,23.28 -12.50,22.74 -12.50,22.21 -12.32,21.70 -12.14,21.20 -11.81,20.78 -11.48,20.36 -11.03,20.06 -10.58,19.77 -10.07,19.63 -9.55,19.50 -9.01,19.53 -8.48,19.57 -7.98,19.77 -7.49,19.98 -7.09,20.33 -6.68,20.68 -6.41,21.15 -6.14,21.61 -6.14,21.61 -6.14,21.61 -5.12,22.98 -4.10,24.36 -5.05,23.81 -6.00,23.27 -4.84,23.15 -3.68,23.04 -2.31,22.68 -0.94,22.33 0.69,21.94 2.33,21.55 3.98,21.19 5.63,20.82 6.96,20.50 8.29,20.19 9.31,19.40 10.33,18.61 10.10,17.46 9.87,16.32 8.69,15.59 7.52,14.87 6.14,14.75 4.76,14.62 3.53,14.98 2.29,15.34 1.93,15.53 1.56,15.72 1.15,15.82 0.75,15.91 0.34,15.91 -0.07,15.91 -0.47,15.81 -0.87,15.70 -1.24,15.51 -1.60,15.31 -1.91,15.04 -2.22,14.76 -2.45,14.42 -2.69,14.07 -2.83,13.69 -2.98,13.30 -3.02,12.89 -3.07,12.47 -3.02,12.06 -2.96,11.65 -2.81,11.26 -2.66,10.88 -2.43,10.54 -2.19,10.20 -1.88,9.93 -1.56,9.65 -1.13,9.39 -0.70,9.13 0.14,7.97 0.98,6.80 1.82,5.66 2.66,4.51 2.47,3.37 2.29,2.24 1.39,2.38 0.50,2.52 0.19,2.54 -0.11,2.56 -0.41,2.51 -0.72,2.46 -1.01,2.34 -1.29,2.22 -1.54,2.03 -1.78,1.84 -1.98,1.60 -2.17,1.36 -2.31,1.08 -2.44,0.80 -2.50,0.50 -2.56,0.19 -2.55,-0.11 -2.53,-0.42 -2.44,-0.72 -2.36,-1.01 -2.20,-1.28 -2.04,-1.55 -1.83,-1.77 -1.61,-1.99 -1.35,-2.16 -1.09,-2.32 -0.79,-2.42 -0.50,-2.52 -0.50,-2.52 L -0.50,-2.52 Z"></path></g><g stroke-opacity="0.9" fill-opacity="0.9" transform="translate(367.90226258298975 282.06334221708744) rotate(0 4.928843793324802 7.239248575587112)" stroke="none"><path fill="#2f9e44" d="M 0,-2.58 Q 0,-2.58 0.73,-2.62 1.47,-2.66 3.00,-2.07 4.53,-1.49 5.27,-0.43 6.02,0.62 6.31,2.20 6.60,3.78 6.15,5.05 5.69,6.32 4.43,7.37 3.17,8.43 2.31,9.18 1.46,9.93 1.09,10.06 0.71,10.20 0.32,10.24 -0.06,10.29 -0.45,10.23 -0.85,10.18 -1.21,10.04 -1.58,9.89 -1.91,9.66 -2.23,9.44 -2.49,9.14 -2.75,8.84 -2.93,8.48 -3.11,8.13 -3.20,7.75 -3.29,7.36 -3.28,6.97 -3.28,6.57 -3.18,6.19 -3.08,5.80 -2.89,5.46 -2.70,5.11 -2.44,4.81 -2.17,4.52 -1.84,4.30 -1.51,4.08 -0.02,7.02 1.47,9.96 1.10,10.09 0.73,10.23 0.34,10.27 -0.05,10.31 -0.44,10.26 -0.83,10.21 -1.19,10.06 -1.56,9.92 -1.88,9.69 -2.20,9.47 -2.46,9.17 -2.72,8.87 -2.89,8.52 -3.07,8.17 -3.16,7.79 -3.25,7.40 -3.25,7.01 -3.24,6.62 -3.14,6.23 -3.05,5.85 -2.86,5.51 -2.67,5.16 -2.41,4.87 -2.14,4.58 -1.82,4.36 -1.49,4.14 -0.15,3.49 1.17,2.84 2.38,2.36 3.58,1.87 4.89,1.44 6.21,1.02 7.75,0.98 9.30,0.95 10.95,1.83 12.60,2.71 13.40,3.62 14.20,4.53 14.82,5.98 15.44,7.43 15.51,8.55 15.59,9.67 15.29,10.77 14.99,11.88 14.21,13.03 13.43,14.18 12.07,15.33 10.70,16.49 9.17,17.11 7.63,17.72 6.50,17.79 5.37,17.85 3.99,17.87 2.62,17.89 0.39,18.04 -1.82,18.19 -2.42,18.15 -3.02,18.10 -3.58,17.87 -4.14,17.63 -4.59,17.23 -5.04,16.83 -5.34,16.31 -5.64,15.79 -5.76,15.19 -5.88,14.60 -5.80,14.00 -5.73,13.41 -5.46,12.86 -5.20,12.32 -4.77,11.89 -4.35,11.46 -3.81,11.19 -3.27,10.91 -2.68,10.83 -2.08,10.74 -1.48,10.85 -0.89,10.96 -0.36,11.25 0.15,11.55 0.56,11.99 0.97,12.44 1.21,12.99 1.45,13.55 1.51,14.15 1.56,14.75 1.42,15.34 1.28,15.92 0.96,16.43 0.63,16.94 0.17,17.33 -0.29,17.71 -0.86,17.92 -1.42,18.13 -2.02,18.15 -2.63,18.17 -3.21,18.00 -3.78,17.83 -4.28,17.48 -4.77,17.13 -5.13,16.64 -5.48,16.16 -5.66,15.58 -5.84,15.00 -5.83,14.40 -5.82,13.80 -5.62,13.23 -5.41,12.66 -5.04,12.19 -4.66,11.71 -4.16,11.39 -3.65,11.06 -3.07,10.91 -2.48,10.76 -2.48,10.76 -2.48,10.76 0.06,10.60 2.61,10.44 3.90,10.44 5.18,10.45 6.37,10.26 7.56,10.08 7.70,8.94 7.84,7.80 6.78,8.08 5.72,8.36 4.64,8.66 3.57,8.95 2.52,9.45 1.47,9.96 1.10,10.09 0.73,10.23 0.34,10.27 -0.05,10.31 -0.44,10.26 -0.83,10.21 -1.19,10.06 -1.56,9.92 -1.88,9.69 -2.20,9.47 -2.46,9.17 -2.72,8.87 -2.89,8.52 -3.07,8.17 -3.16,7.79 -3.25,7.40 -3.25,7.01 -3.24,6.62 -3.14,6.23 -3.05,5.85 -2.86,5.51 -2.67,5.16 -2.41,4.87 -2.14,4.58 -1.82,4.36 -1.49,4.14 -0.01,7.03 1.46,9.93 1.09,10.06 0.71,10.20 0.32,10.24 -0.06,10.29 -0.45,10.23 -0.85,10.18 -1.21,10.04 -1.58,9.89 -1.91,9.66 -2.23,9.44 -2.49,9.14 -2.75,8.84 -2.93,8.48 -3.11,8.13 -3.20,7.75 -3.29,7.36 -3.28,6.97 -3.28,6.57 -3.18,6.19 -3.08,5.80 -2.89,5.46 -2.70,5.11 -2.44,4.81 -2.17,4.52 -1.84,4.30 -1.51,4.08 -1.22,3.87 -0.92,3.65 0.21,3.15 1.35,2.66 0.67,2.62 0,2.58 -0.30,2.54 -0.61,2.50 -0.90,2.39 -1.19,2.28 -1.45,2.10 -1.71,1.93 -1.91,1.69 -2.12,1.46 -2.26,1.19 -2.41,0.91 -2.48,0.61 -2.56,0.31 -2.56,-0.00 -2.56,-0.31 -2.48,-0.61 -2.41,-0.91 -2.26,-1.19 -2.12,-1.46 -1.91,-1.69 -1.71,-1.93 -1.45,-2.10 -1.19,-2.28 -0.90,-2.39 -0.61,-2.50 -0.30,-2.54 0.00,-2.58 0.00,-2.58 L 0,-2.58 Z"></path></g><g stroke-opacity="0.9" fill-opacity="0.9" transform="translate(369.1344559043851 279.29086493930185) rotate(0 -4.620795462975963 0.6161107622463362)" stroke="none"><path fill="#2f9e44" d="M 0,2.53 Q 0,2.53 -0.79,2.58 -1.59,2.62 -2.81,2.73 -4.04,2.83 -5.98,3.47 -7.92,4.11 -8.28,4.19 -8.64,4.27 -9.00,4.26 -9.37,4.25 -9.73,4.16 -10.08,4.06 -10.41,3.88 -10.73,3.70 -11.00,3.45 -11.27,3.20 -11.47,2.89 -11.67,2.58 -11.79,2.23 -11.92,1.88 -11.95,1.52 -11.99,1.15 -11.93,0.79 -11.88,0.42 -11.74,0.08 -11.60,-0.25 -11.38,-0.55 -11.17,-0.85 -10.88,-1.09 -10.60,-1.32 -10.27,-1.49 -9.94,-1.65 -8.11,-0.97 -6.28,-0.29 -6.10,0.17 -5.93,0.63 -5.91,1.13 -5.89,1.62 -6.04,2.10 -6.18,2.57 -6.47,2.97 -6.75,3.38 -7.15,3.67 -7.55,3.96 -8.02,4.11 -8.50,4.26 -8.99,4.25 -9.49,4.24 -9.95,4.07 -10.42,3.90 -10.81,3.59 -11.19,3.28 -11.46,2.87 -11.73,2.45 -11.85,1.97 -11.98,1.49 -11.94,1.00 -11.90,0.51 -11.71,0.05 -11.52,-0.39 -11.19,-0.76 -10.86,-1.14 -10.43,-1.38 -10.00,-1.63 -9.52,-1.72 -9.03,-1.82 -8.54,-1.76 -8.05,-1.69 -7.60,-1.48 -7.16,-1.26 -6.81,-0.91 -6.45,-0.56 -6.23,-0.12 -6.01,0.31 -5.94,0.80 -5.87,1.29 -5.96,1.78 -6.05,2.26 -6.29,2.70 -6.53,3.13 -6.90,3.46 -7.27,3.79 -7.72,3.99 -8.17,4.19 -8.67,4.23 -9.16,4.28 -9.64,4.16 -10.12,4.04 -10.54,3.78 -10.96,3.52 -9.44,3.82 -7.92,4.11 -8.28,4.19 -8.64,4.27 -9.00,4.26 -9.37,4.25 -9.73,4.16 -10.08,4.06 -10.41,3.88 -10.73,3.70 -11.00,3.45 -11.27,3.20 -11.47,2.89 -11.67,2.58 -11.79,2.23 -11.92,1.88 -11.95,1.52 -11.99,1.15 -11.93,0.79 -11.88,0.42 -11.74,0.08 -11.60,-0.25 -11.38,-0.55 -11.17,-0.85 -10.88,-1.09 -10.60,-1.32 -10.27,-1.49 -9.94,-1.65 -8.10,-2.32 -6.26,-3.00 -5.15,-2.92 -4.04,-2.83 -2.81,-2.73 -1.59,-2.62 -0.79,-2.58 0,-2.53 0.30,-2.50 0.60,-2.46 0.89,-2.35 1.17,-2.24 1.43,-2.07 1.68,-1.89 1.88,-1.67 2.08,-1.44 2.23,-1.17 2.37,-0.89 2.44,-0.60 2.51,-0.30 2.51,0.00 2.51,0.30 2.44,0.60 2.37,0.90 2.23,1.17 2.08,1.44 1.88,1.67 1.68,1.89 1.43,2.07 1.17,2.24 0.89,2.35 0.60,2.46 0.30,2.50 -0.00,2.53 -0.00,2.53 L 0,2.53 Z"></path></g><g stroke-opacity="0.9" fill-opacity="0.9" transform="translate(396.85922868224094 303.3190013467769) rotate(0 10.011732904147038 -0.616096660697707)" stroke="none"><path fill="#2f9e44" d="M -0.12,-2.06 Q -0.12,-2.06 2.89,-2.14 5.91,-2.22 9.03,-2.39 12.16,-2.57 14.32,-2.62 16.48,-2.68 18.21,-2.86 19.94,-3.04 20.23,-3.00 20.52,-2.97 20.78,-2.84 21.05,-2.72 21.26,-2.51 21.47,-2.31 21.60,-2.05 21.74,-1.79 21.78,-1.50 21.83,-1.21 21.78,-0.92 21.73,-0.63 21.59,-0.38 21.45,-0.12 21.24,0.07 21.02,0.27 20.75,0.39 20.49,0.51 20.20,0.54 19.91,0.57 19.62,0.50 19.33,0.44 19.08,0.29 18.83,0.13 18.65,-0.08 18.46,-0.31 18.35,-0.58 18.25,-0.85 18.23,-1.15 18.22,-1.44 18.30,-1.72 18.38,-2.00 18.55,-2.24 18.71,-2.48 18.95,-2.66 19.18,-2.83 19.46,-2.92 19.74,-3.02 20.03,-3.01 20.33,-3.01 20.60,-2.92 20.88,-2.82 21.11,-2.64 21.34,-2.46 21.51,-2.22 21.67,-1.97 21.74,-1.69 21.82,-1.41 21.80,-1.12 21.78,-0.82 21.67,-0.55 21.56,-0.28 21.37,-0.06 21.18,0.15 20.93,0.30 20.67,0.45 20.39,0.51 20.10,0.57 20.10,0.57 20.10,0.57 18.37,0.55 16.64,0.53 14.54,0.69 12.43,0.85 9.28,1.18 6.13,1.51 3.12,1.78 0.12,2.06 -0.12,2.05 -0.37,2.03 -0.61,1.96 -0.85,1.88 -1.06,1.75 -1.27,1.62 -1.45,1.45 -1.63,1.27 -1.76,1.06 -1.88,0.84 -1.96,0.60 -2.03,0.36 -2.05,0.12 -2.06,-0.12 -2.02,-0.37 -1.97,-0.61 -1.87,-0.84 -1.77,-1.07 -1.61,-1.27 -1.46,-1.46 -1.26,-1.62 -1.06,-1.77 -0.84,-1.87 -0.61,-1.97 -0.36,-2.02 -0.12,-2.06 -0.12,-2.06 L -0.12,-2.06 Z"></path></g><g stroke-opacity="0.9" fill-opacity="0.9" transform="translate(401.4800241452169 311.9444956120311) rotate(0 12.014068203737537 0.15403121594874847)" stroke="none"><path fill="#2f9e44" d="M 0,-2.39 Q 0,-2.39 2.39,-2.25 4.78,-2.11 6.77,-2.04 8.76,-1.97 10.40,-1.98 12.04,-2.00 13.43,-1.97 14.82,-1.93 16.66,-2.01 18.49,-2.08 21.26,-2.15 24.02,-2.21 24.43,-2.14 24.83,-2.08 25.19,-1.89 25.55,-1.69 25.83,-1.40 26.11,-1.10 26.28,-0.73 26.45,-0.36 26.50,0.04 26.54,0.44 26.45,0.84 26.37,1.24 26.16,1.59 25.95,1.94 25.63,2.20 25.32,2.47 24.94,2.62 24.56,2.77 24.16,2.79 23.75,2.81 23.36,2.70 22.96,2.59 22.62,2.36 22.29,2.13 22.04,1.81 21.79,1.48 21.66,1.10 21.53,0.71 21.53,0.30 21.53,-0.10 21.66,-0.48 21.79,-0.87 22.04,-1.19 22.29,-1.52 22.63,-1.75 22.97,-1.98 23.36,-2.09 23.75,-2.20 24.16,-2.17 24.57,-2.15 24.95,-2.00 25.33,-1.85 25.64,-1.58 25.95,-1.32 26.16,-0.97 26.37,-0.62 26.45,-0.22 26.54,0.17 26.50,0.57 26.45,0.98 26.28,1.35 26.11,1.72 25.83,2.02 25.55,2.31 25.19,2.50 24.83,2.69 24.42,2.76 24.02,2.83 24.02,2.83 24.02,2.83 21.22,2.74 18.42,2.65 16.48,2.47 14.54,2.29 13.29,2.15 12.04,2.00 10.40,1.98 8.76,1.97 6.77,2.04 4.78,2.11 2.39,2.25 0,2.39 -0.28,2.35 -0.57,2.32 -0.84,2.22 -1.11,2.11 -1.34,1.95 -1.58,1.79 -1.77,1.57 -1.96,1.35 -2.10,1.10 -2.23,0.84 -2.30,0.56 -2.37,0.28 -2.37,-0.00 -2.37,-0.28 -2.30,-0.56 -2.23,-0.84 -2.10,-1.10 -1.96,-1.35 -1.77,-1.57 -1.58,-1.79 -1.34,-1.95 -1.11,-2.11 -0.84,-2.22 -0.57,-2.32 -0.28,-2.35 0.00,-2.39 0.00,-2.39 L 0,-2.39 Z"></path></g><g stroke-opacity="0.9" fill-opacity="0.9" transform="translate(440.29470603421504 296.23379103791285) rotate(0 0.7701419781950847 12.322116534086348)" stroke="none"><path fill="#2f9e44" d="M 2.37,-0.19 Q 2.37,-0.19 2.41,1.93 2.45,4.07 2.56,5.54 2.67,7.00 2.83,8.23 3.00,9.46 3.22,11.17 3.45,12.88 3.51,14.63 3.57,16.38 3.73,17.59 3.88,18.79 4.05,20.06 4.23,21.32 4.26,22.98 4.30,24.64 4.22,25.08 4.15,25.52 3.94,25.91 3.73,26.31 3.41,26.62 3.09,26.92 2.68,27.11 2.27,27.30 1.83,27.35 1.39,27.40 0.95,27.30 0.51,27.20 0.13,26.97 -0.24,26.74 -0.53,26.40 -0.82,26.06 -0.99,25.65 -1.15,25.23 -1.17,24.79 -1.20,24.34 -1.08,23.91 -0.96,23.48 -0.71,23.11 -0.46,22.74 -0.10,22.47 0.24,22.20 0.66,22.06 1.09,21.92 1.53,21.92 1.98,21.92 2.40,22.06 2.83,22.20 3.18,22.47 3.54,22.74 3.79,23.11 4.04,23.48 4.16,23.91 4.28,24.34 4.26,24.79 4.23,25.23 4.07,25.65 3.90,26.06 3.61,26.40 3.32,26.74 2.94,26.97 2.56,27.20 2.12,27.30 1.69,27.40 1.24,27.35 0.80,27.30 0.39,27.11 -0.00,26.92 -0.33,26.62 -0.65,26.31 -0.86,25.92 -1.07,25.52 -1.14,25.08 -1.22,24.64 -1.22,24.64 -1.22,24.64 -1.22,23.13 -1.22,21.61 -1.22,20.49 -1.22,19.37 -1.35,18.06 -1.48,16.76 -1.68,15.08 -1.87,13.41 -1.84,11.51 -1.80,9.61 -1.73,8.42 -1.66,7.23 -1.70,5.83 -1.74,4.42 -2.05,2.31 -2.37,0.19 -2.36,-0.08 -2.35,-0.37 -2.27,-0.65 -2.19,-0.92 -2.05,-1.17 -1.90,-1.42 -1.71,-1.63 -1.51,-1.84 -1.26,-1.99 -1.02,-2.15 -0.75,-2.24 -0.48,-2.33 -0.19,-2.35 0.08,-2.38 0.37,-2.33 0.65,-2.29 0.92,-2.17 1.18,-2.06 1.41,-1.89 1.64,-1.72 1.82,-1.50 2.01,-1.27 2.13,-1.01 2.25,-0.76 2.31,-0.47 2.37,-0.19 2.37,-0.19 L 2.37,-0.19 Z"></path></g><g stroke-opacity="0.9" fill-opacity="0.9" transform="translate(453.2329333305477 294.6935211830713) rotate(0 6.315096533766223 9.703677523023856)" stroke="none"><path fill="#2f9e44" d="M 2.45,0.40 Q 2.45,0.40 2.16,1.99 1.86,3.58 1.79,4.71 1.72,5.83 1.60,7.10 1.49,8.36 0.79,9.94 0.10,11.52 0.13,9.90 0.16,8.28 -1.26,7.70 -2.69,7.13 -1.80,6.45 -0.91,5.77 0.26,5.35 1.43,4.93 2.48,4.41 3.53,3.89 4.85,3.66 6.16,3.43 7.23,3.38 8.30,3.33 9.47,3.62 10.65,3.90 11.85,4.63 13.05,5.36 14.25,6.53 15.45,7.71 16.24,8.79 17.03,9.88 17.48,10.97 17.93,12.05 18.02,13.26 18.11,14.48 18.11,15.66 18.12,16.84 17.61,18.23 17.10,19.61 16.36,20.47 15.61,21.32 14.17,21.93 12.74,22.54 11.61,22.84 10.47,23.14 9.32,23.14 8.17,23.15 7.10,23.01 6.04,22.88 4.40,22.57 2.76,22.27 2.30,22.21 1.85,22.15 1.42,21.99 1.00,21.83 0.62,21.57 0.25,21.31 -0.04,20.96 -0.35,20.62 -0.56,20.22 -0.77,19.81 -0.88,19.37 -0.98,18.92 -0.98,18.47 -0.98,18.01 -0.87,17.57 -0.76,17.13 -0.55,16.72 -0.33,16.32 -0.03,15.98 0.26,15.64 0.64,15.38 1.02,15.12 1.44,14.96 1.87,14.80 2.32,14.74 2.78,14.69 2.32,14.75 1.86,14.80 2.47,14.75 3.08,14.70 3.67,14.85 4.27,15.00 4.78,15.33 5.30,15.66 5.68,16.14 6.07,16.62 6.28,17.19 6.49,17.77 6.50,18.38 6.52,18.99 6.34,19.58 6.16,20.16 5.80,20.66 5.44,21.16 4.95,21.52 4.45,21.87 3.86,22.05 3.28,22.23 2.66,22.21 2.05,22.20 1.47,21.99 0.90,21.77 0.42,21.39 -0.04,21.01 -0.37,20.49 -0.70,19.97 -0.85,19.38 -1.00,18.78 -0.95,18.17 -0.90,17.56 -0.65,17.00 -0.41,16.43 -0.00,15.98 0.40,15.52 0.93,15.22 1.46,14.92 2.07,14.81 2.67,14.69 3.28,14.77 3.88,14.86 4.43,15.13 4.98,15.40 5.41,15.84 5.85,16.27 6.12,16.82 6.39,17.37 6.47,17.98 6.55,18.59 6.44,19.19 6.32,19.79 6.02,20.32 5.72,20.85 5.26,21.26 4.80,21.67 3.78,21.97 2.76,22.27 2.30,22.21 1.85,22.15 1.42,21.99 1.00,21.83 0.62,21.57 0.25,21.31 -0.04,20.96 -0.35,20.62 -0.56,20.22 -0.77,19.81 -0.88,19.37 -0.98,18.92 -0.98,18.47 -0.98,18.01 -0.87,17.57 -0.76,17.13 -0.55,16.72 -0.33,16.32 -0.03,15.98 0.26,15.64 0.64,15.38 1.02,15.12 1.44,14.96 1.87,14.80 2.32,14.74 2.78,14.69 4.47,15.00 6.17,15.32 7.36,15.48 8.56,15.65 9.69,15.88 10.82,16.11 10.75,14.76 10.68,13.41 9.86,12.48 9.04,11.54 8.19,10.86 7.34,10.18 6.08,10.02 4.82,9.86 2.96,10.79 1.09,11.73 -0.06,12.11 -1.22,12.49 -2.47,11.78 -3.73,11.08 -3.75,9.36 -3.78,7.64 -3.51,6.50 -3.23,5.37 -3.08,4.08 -2.92,2.78 -2.69,1.18 -2.45,-0.40 -2.37,-0.69 -2.28,-0.98 -2.13,-1.24 -1.98,-1.50 -1.77,-1.72 -1.56,-1.93 -1.31,-2.09 -1.05,-2.25 -0.77,-2.35 -0.48,-2.44 -0.18,-2.46 0.11,-2.49 0.40,-2.44 0.70,-2.39 0.97,-2.27 1.25,-2.15 1.49,-1.97 1.73,-1.79 1.92,-1.55 2.11,-1.32 2.24,-1.05 2.36,-0.77 2.42,-0.48 2.48,-0.19 2.47,0.10 2.45,0.41 2.45,0.40 L 2.45,0.40 Z"></path></g><g stroke-opacity="0.9" fill-opacity="0.9" transform="translate(453.8490581943427 291.9210439052857) rotate(0 7.7013351726590145 -0.77013492742077)" stroke="none"><path fill="#2f9e44" d="M 0,-2.61 Q 0,-2.61 0.79,-2.65 1.59,-2.69 2.72,-2.76 3.84,-2.84 5.16,-3.07 6.48,-3.30 7.88,-3.67 9.29,-4.04 10.36,-4.12 11.43,-4.21 14.74,-3.75 18.05,-3.30 18.31,-2.82 18.57,-2.34 18.67,-1.80 18.76,-1.27 18.68,-0.73 18.60,-0.19 18.35,0.28 18.10,0.77 17.71,1.15 17.32,1.53 16.83,1.76 16.34,1.99 15.80,2.06 15.26,2.13 14.72,2.01 14.19,1.90 13.72,1.63 13.25,1.35 12.89,0.94 12.53,0.53 12.33,0.03 12.12,-0.46 12.08,-1.01 12.05,-1.55 12.19,-2.08 12.33,-2.60 12.63,-3.06 12.93,-3.51 13.36,-3.85 13.79,-4.18 14.30,-4.36 14.81,-4.54 15.36,-4.55 15.90,-4.55 16.42,-4.39 16.94,-4.22 17.38,-3.89 17.81,-3.57 18.12,-3.12 18.44,-2.68 18.59,-2.15 18.74,-1.63 18.72,-1.09 18.69,-0.54 18.50,-0.03 18.30,0.46 17.95,0.88 17.61,1.30 17.14,1.59 16.68,1.87 16.15,2.00 15.62,2.12 15.08,2.07 14.54,2.02 14.04,1.79 13.54,1.57 13.14,1.20 12.74,0.83 12.74,0.83 12.74,0.83 12.72,1.63 12.71,2.43 11.60,2.38 10.50,2.33 9.36,2.38 8.22,2.44 7.14,2.56 6.06,2.67 4.95,2.75 3.84,2.84 2.72,2.76 1.59,2.69 0.79,2.65 0,2.61 -0.31,2.57 -0.62,2.53 -0.92,2.42 -1.21,2.31 -1.47,2.13 -1.73,1.95 -1.94,1.72 -2.15,1.48 -2.29,1.20 -2.44,0.92 -2.51,0.62 -2.59,0.31 -2.59,-0.00 -2.59,-0.31 -2.51,-0.62 -2.44,-0.92 -2.29,-1.20 -2.15,-1.48 -1.94,-1.72 -1.73,-1.95 -1.47,-2.13 -1.21,-2.31 -0.91,-2.42 -0.62,-2.53 -0.31,-2.57 0.00,-2.61 0.00,-2.61 L 0,-2.61 Z"></path></g><g stroke-opacity="0.9" fill-opacity="0.9" transform="translate(478.185228830618 289.45661495784896) rotate(0 9.087573811551806 11.397971543039802)" stroke="none"><path fill="#2f9e44" d="M 0,-2.53 Q 0,-2.53 1.94,-2.42 3.89,-2.31 5.07,-2.35 6.26,-2.40 7.44,-2.49 8.62,-2.59 9.75,-2.93 10.88,-3.27 12.50,-3.22 14.12,-3.17 14.90,-1.03 15.68,1.10 15.47,2.19 15.26,3.27 14.85,4.42 14.43,5.57 13.55,6.76 12.66,7.96 11.80,9.44 10.95,10.93 10.02,11.89 9.10,12.85 8.06,13.62 7.03,14.39 6.79,14.54 6.54,14.69 6.18,14.92 5.81,15.16 5.40,15.29 4.99,15.43 4.55,15.47 4.12,15.50 3.69,15.44 3.26,15.37 2.86,15.20 2.46,15.03 2.12,14.77 1.77,14.51 1.49,14.17 1.22,13.84 1.03,13.45 0.84,13.05 0.76,12.63 0.67,12.20 0.68,11.77 0.70,11.34 0.82,10.92 0.94,10.50 1.16,10.12 1.37,9.75 1.67,9.43 1.97,9.12 4.27,11.93 6.57,14.74 6.20,14.98 5.84,15.21 5.43,15.35 5.01,15.49 4.58,15.52 4.15,15.56 3.72,15.49 3.30,15.42 2.90,15.25 2.50,15.08 2.15,14.82 1.80,14.56 1.53,14.23 1.25,13.89 1.07,13.50 0.88,13.11 0.79,12.69 0.70,12.26 0.72,11.83 0.74,11.40 0.86,10.98 0.98,10.56 1.19,10.19 1.41,9.81 1.71,9.50 2.01,9.19 3.16,8.55 4.32,7.92 5.35,7.58 6.38,7.24 7.93,6.19 9.47,5.14 10.66,4.59 11.85,4.04 13.01,4.00 14.17,3.95 15.67,4.24 17.17,4.53 18.13,5.37 19.09,6.20 19.77,7.16 20.45,8.12 20.73,9.39 21.00,10.65 21.45,11.86 21.91,13.07 21.95,14.27 21.99,15.47 21.86,16.68 21.73,17.89 21.20,19.01 20.67,20.13 20.09,21.04 19.52,21.95 18.73,22.73 17.95,23.50 16.76,24.18 15.56,24.85 14.18,25.37 12.80,25.90 11.26,26.20 9.73,26.51 8.64,26.71 7.55,26.92 6.47,27.05 5.38,27.18 4.23,27.21 3.08,27.23 1.77,26.86 0.45,26.49 -1.22,23.26 -2.91,20.03 -2.81,19.42 -2.71,18.80 -2.42,18.25 -2.13,17.71 -1.68,17.28 -1.23,16.85 -0.67,16.59 -0.11,16.33 0.50,16.26 1.12,16.19 1.72,16.32 2.33,16.45 2.86,16.77 3.39,17.09 3.80,17.56 4.20,18.03 4.43,18.61 4.66,19.18 4.70,19.80 4.73,20.42 4.57,21.02 4.40,21.62 4.06,22.13 3.71,22.65 3.22,23.03 2.72,23.40 2.14,23.60 1.55,23.80 0.93,23.80 0.31,23.80 -0.27,23.61 -0.86,23.41 -1.35,23.04 -1.85,22.66 -2.20,22.15 -2.55,21.64 -2.72,21.04 -2.88,20.44 -2.85,19.82 -2.82,19.20 -2.59,18.63 -2.36,18.05 -1.96,17.58 -1.56,17.10 -1.03,16.78 -0.50,16.46 0.10,16.32 0.70,16.19 1.32,16.26 1.94,16.32 2.50,16.58 3.06,16.84 3.52,17.27 3.97,17.69 4.26,18.24 4.55,18.79 4.65,19.40 4.75,20.01 4.75,20.01 4.75,20.01 4.10,19.80 3.45,19.58 4.55,19.55 5.64,19.51 6.86,19.22 8.08,18.93 9.28,18.86 10.47,18.79 11.46,18.38 12.44,17.97 13.39,17.34 14.34,16.71 14.39,15.51 14.44,14.31 13.74,12.83 13.05,11.36 11.94,11.95 10.84,12.53 9.97,13.20 9.11,13.86 7.84,14.30 6.57,14.74 6.20,14.98 5.84,15.21 5.43,15.35 5.02,15.49 4.58,15.52 4.15,15.56 3.72,15.49 3.30,15.42 2.90,15.25 2.50,15.08 2.15,14.82 1.80,14.56 1.53,14.23 1.25,13.89 1.07,13.50 0.88,13.11 0.79,12.69 0.70,12.26 0.72,11.83 0.74,11.40 0.86,10.98 0.97,10.56 1.19,10.19 1.41,9.81 1.71,9.50 2.01,9.19 4.27,11.94 6.54,14.69 6.18,14.92 5.81,15.16 5.40,15.29 4.99,15.43 4.56,15.47 4.12,15.50 3.69,15.44 3.26,15.37 2.86,15.20 2.46,15.03 2.12,14.77 1.77,14.51 1.49,14.17 1.22,13.84 1.03,13.45 0.84,13.05 0.76,12.63 0.67,12.20 0.68,11.77 0.70,11.34 0.82,10.92 0.94,10.50 1.16,10.12 1.37,9.75 1.67,9.43 1.97,9.12 2.48,8.85 2.99,8.58 4.23,7.56 5.46,6.55 6.31,5.60 7.16,4.65 7.98,3.57 8.79,2.48 9.08,1.44 9.37,0.39 10.35,-0.53 11.33,-1.47 11.37,0.36 11.40,2.20 10.01,2.39 8.62,2.59 7.44,2.49 6.26,2.40 5.07,2.35 3.89,2.31 1.94,2.42 0,2.53 -0.30,2.49 -0.60,2.45 -0.89,2.35 -1.17,2.24 -1.42,2.06 -1.67,1.89 -1.88,1.66 -2.08,1.43 -2.22,1.16 -2.36,0.89 -2.44,0.60 -2.51,0.30 -2.51,-0.00 -2.51,-0.30 -2.44,-0.60 -2.36,-0.89 -2.22,-1.16 -2.08,-1.43 -1.88,-1.66 -1.67,-1.89 -1.42,-2.06 -1.17,-2.24 -0.89,-2.35 -0.60,-2.45 -0.30,-2.49 0.00,-2.53 0.00,-2.53 L 0,-2.53 Z"></path></g><g stroke-opacity="0.9" fill-opacity="0.9" stroke-linecap="round" transform="translate(550.0144189522289 246.246754322846) rotate(0 116.70829292580186 76.82066926684223)"><path d="M0 0 C87.66 0, 175.33 0, 233.42 0 M0 0 C59.47 0, 118.93 0, 233.42 0 M233.42 0 C233.42 36.02, 233.42 72.04, 233.42 153.64 M233.42 0 C233.42 42.23, 233.42 84.45, 233.42 153.64 M233.42 153.64 C162.71 153.64, 91.99 153.64, 0 153.64 M233.42 153.64 C171.69 153.64, 109.96 153.64, 0 153.64 M0 153.64 C0 98.16, 0 42.68, 0 0 M0 153.64 C0 113.02, 0 72.4, 0 0" stroke="#2f9e44" stroke-width="1" fill="none"></path></g><g stroke-opacity="0.9" fill-opacity="0.9" transform="translate(587.6860118600116 249.20138309368102) rotate(0 50.11997985839844 12.5)"><text x="0" y="17.52" font-family="Virgil, Segoe UI Emoji" font-size="20px" fill="#2f9e44" text-anchor="start" style="white-space: pre;" direction="ltr" dominant-baseline="alphabetic">// Given n</text></g><g stroke-opacity="0.9" fill-opacity="0.9" transform="translate(571.4354690874898 277.27044094954306) rotate(0 93.75 60)"><text x="0" y="19.3125" font-family="Cascadia, Segoe UI Emoji" font-size="20px" fill="#2f9e44" text-anchor="start" style="white-space: pre;" direction="ltr" dominant-baseline="alphabetic">temp = n;</text><text x="0" y="43.3125" font-family="Cascadia, Segoe UI Emoji" font-size="20px" fill="#2f9e44" text-anchor="start" style="white-space: pre;" direction="ltr" dominant-baseline="alphabetic">d3 = temp%10;</text><text x="0" y="67.3125" font-family="Cascadia, Segoe UI Emoji" font-size="20px" fill="#2f9e44" text-anchor="start" style="white-space: pre;" direction="ltr" dominant-baseline="alphabetic">temp = temp/10;</text><text x="0" y="91.3125" font-family="Cascadia, Segoe UI Emoji" font-size="20px" fill="#2f9e44" text-anchor="start" style="white-space: pre;" direction="ltr" dominant-baseline="alphabetic">d2= temp%10;</text><text x="0" y="115.3125" font-family="Cascadia, Segoe UI Emoji" font-size="20px" fill="#2f9e44" text-anchor="start" style="white-space: pre;" direction="ltr" dominant-baseline="alphabetic">temp = temp/10; </text></g><g stroke-opacity="0.9" fill-opacity="0.9" transform="translate(29.99772649496049 430.91174567005555) rotate(0 74.51993560791016 12.5)"><text x="0" y="17.52" font-family="Virgil, Segoe UI Emoji" font-size="20px" fill="#2f9e44" text-anchor="start" style="white-space: pre;" direction="ltr" dominant-baseline="alphabetic">Using Recursion</text></g><g stroke-opacity="0.9" fill-opacity="0.9" transform="translate(121.2222152462698 473.0153662670202) rotate(0 268.3398132324219 37.5)"><text x="0" y="17.52" font-family="Virgil, Segoe UI Emoji" font-size="20px" fill="#2f9e44" text-anchor="start" style="white-space: pre;" direction="ltr" dominant-baseline="alphabetic">1. Base case: return number raised to power 3 if n&lt;10</text><text x="0" y="42.519999999999996" font-family="Virgil, Segoe UI Emoji" font-size="20px" fill="#2f9e44" text-anchor="start" style="white-space: pre;" direction="ltr" dominant-baseline="alphabetic">    temp = n;</text><text x="0" y="67.52" font-family="Virgil, Segoe UI Emoji" font-size="20px" fill="#2f9e44" text-anchor="start" style="white-space: pre;" direction="ltr" dominant-baseline="alphabetic">2. cube(temp % 10) + recArmstrong(temp/10); </text></g><g stroke-opacity="0.9" fill-opacity="0.9" transform="translate(120.11422523056018 581.598387806561) rotate(0 328.63970947265625 25)"><text x="0" y="17.52" font-family="Virgil, Segoe UI Emoji" font-size="20px" fill="#2f9e44" text-anchor="start" style="white-space: pre;" direction="ltr" dominant-baseline="alphabetic">This function recursively calls recArmstrong till it hits base case </text><text x="0" y="42.519999999999996" font-family="Virgil, Segoe UI Emoji" font-size="20px" fill="#2f9e44" text-anchor="start" style="white-space: pre;" direction="ltr" dominant-baseline="alphabetic">        (i.e till when n becomes less than 10)</text></g></svg>